<?xml version="1.0" encoding="UTF-8"?>
<svg version="1.1" xmlns="http://www.w3.org/2000/svg" width="1024" height="1024">
<path d="M0 0 C337.92 0 675.84 0 1024 0 C1024 337.92 1024 675.84 1024 1024 C686.08 1024 348.16 1024 0 1024 C0 686.08 0 348.16 0 0 Z " fill="#1F201E" transform="translate(0,0)"/>
<path d="M0 0 C0.79888641 -0.00031219 1.59777283 -0.00062439 2.42086792 -0.00094604 C45.26050738 0.12648557 84.89292543 15.42840732 117.25 43.4375 C118.054375 44.13101563 118.85875 44.82453125 119.6875 45.5390625 C130.46922342 55.04218411 140.3698012 65.13267354 149.25 76.4375 C150.15693098 77.5562493 151.0658951 78.67335255 151.9765625 79.7890625 C159.49121857 89.02616776 166.5956172 98.535767 173.58691406 108.17333984 C175.17305037 110.33273916 176.79344403 112.46046133 178.4296875 114.58203125 C178.90905762 115.21616943 179.38842773 115.85030762 179.88232422 116.50366211 C180.76829921 117.67542018 181.66766453 118.83722072 182.58251953 119.98657227 C183.75 121.5546875 183.75 121.5546875 185.25 124.4375 C184.1274443 128.24656417 182.1757002 131.23578413 179.90625 134.46484375 C179.24133545 135.41609131 178.5764209 136.36733887 177.89135742 137.34741211 C177.18470947 138.34651611 176.47806152 139.34562012 175.75 140.375 C175.03110596 141.3966626 174.31221191 142.4183252 173.5715332 143.47094727 C172.1324735 145.51455083 170.69150619 147.55681257 169.24853516 149.59765625 C167.50567531 152.07419494 165.78393615 154.56303736 164.07421875 157.0625 C163.1954253 158.33341134 162.3165292 159.60425171 161.4375 160.875 C160.85355469 161.74209595 160.85355469 161.74209595 160.2578125 162.62670898 C159.16796875 164.18359375 159.16796875 164.18359375 157.25 166.4375 C156.26 166.4375 155.27 166.4375 154.25 166.4375 C152.90649414 165.05493164 152.90649414 165.05493164 151.53515625 163.09765625 C151.02017578 162.37304199 150.50519531 161.64842773 149.97460938 160.90185547 C149.42611328 160.10924316 148.87761719 159.31663086 148.3125 158.5 C147.73693359 157.6867627 147.16136719 156.87352539 146.56835938 156.03564453 C144.25448559 152.76061343 141.96561756 149.46854985 139.67919922 146.17431641 C130.28996144 132.64682496 120.37422619 119.73847544 109.2265625 107.59765625 C107.35874502 105.55634584 105.55052609 103.47561377 103.75 101.375 C91.3323582 87.27170547 76.87145096 76.15489837 60.25 67.4375 C59.43917969 66.98117187 58.62835938 66.52484375 57.79296875 66.0546875 C52.60541924 63.24439662 47.18965828 61.23089878 41.625 59.3125 C40.93954102 59.07063965 40.25408203 58.8287793 39.54785156 58.57958984 C26.36082114 54.20887712 13.17807152 52.88242102 -0.625 53 C-1.36502258 53.00237671 -2.10504517 53.00475342 -2.86749268 53.00720215 C-14.26474019 53.06435585 -24.84508575 53.97867257 -35.75 57.4375 C-36.79671875 57.72625 -37.8434375 58.015 -38.921875 58.3125 C-55.27039561 63.15650611 -70.83459868 72.47958919 -83.75 83.4375 C-84.9875 84.47197266 -84.9875 84.47197266 -86.25 85.52734375 C-108.42193502 104.68528135 -122.72792376 132.45104581 -126.75 161.4375 C-126.93928436 165.76431785 -126.93581321 170.09031183 -126.93530273 174.4206543 C-126.93746841 176.47010742 -126.95559956 178.51900268 -126.97460938 180.56835938 C-127.11513008 213.03035905 -114.71334358 243.68455064 -92.75 267.4375 C-91.67685547 268.63246094 -91.67685547 268.63246094 -90.58203125 269.8515625 C-75.0349837 286.36118523 -54.56457367 296.6809264 -33.125 303.1875 C-32.48151611 303.38617676 -31.83803223 303.58485352 -31.17504883 303.78955078 C-20.21172006 306.97021074 -9.17940282 307.77894796 2.1875 307.6875 C4.03879517 307.67626099 4.03879517 307.67626099 5.92749023 307.66479492 C14.22516815 307.56651633 22.12949285 307.26008151 30.25 305.4375 C30.94786621 305.28684082 31.64573242 305.13618164 32.36474609 304.98095703 C51.04252635 300.85893684 67.54640065 293.30699213 83.25 282.4375 C83.8157373 282.04820312 84.38147461 281.65890625 84.96435547 281.2578125 C101.45913874 269.66819761 116.16217705 254.28089295 128.04492188 238.05712891 C129.7267309 235.79677212 131.49011725 233.60551055 133.2512207 231.40673828 C142.94232444 219.27865005 151.80263537 206.52227548 160.73242188 193.83056641 C165.96032019 186.40838967 171.28231467 179.05513698 176.60888672 171.70361328 C179.32648163 167.95105215 182.03801939 164.19411955 184.75 160.4375 C188.00869057 155.92358105 191.2686666 151.41062335 194.53515625 146.90234375 C199.79882273 139.63317256 205.03156726 132.34604831 210.1875 125 C216.21831763 116.41667847 222.42780448 107.96939185 228.68261719 99.54833984 C230.06489083 97.68679189 231.44317865 95.82238161 232.8203125 93.95703125 C237.7740709 87.28585487 242.9180866 80.80999649 248.25 74.4375 C248.68119141 73.91462402 249.11238281 73.39174805 249.55664062 72.85302734 C261.66109031 58.19001908 274.75878545 44.5421276 290.25 33.4375 C290.84103516 33.01275391 291.43207031 32.58800781 292.04101562 32.15039062 C320.889978 11.66793721 354.80171369 -0.2573431 390.31616211 0.10131836 C392.8146183 0.1250201 395.31200544 0.12183199 397.81054688 0.11523438 C411.49711511 0.13795235 424.89986465 1.18283472 438.1875 4.6875 C439.02611572 4.90510986 439.86473145 5.12271973 440.72875977 5.34692383 C485.26439853 17.20990839 525.57373003 45.04940201 548.92871094 85.33300781 C573.76901174 129.83678353 581.39704952 179.00378331 567.94921875 228.59765625 C563.8828457 242.90387464 558.40593831 256.40311306 551.25 269.4375 C550.90211426 270.07139648 550.55422852 270.70529297 550.19580078 271.35839844 C536.87433404 295.26997399 517.87531466 315.17368395 495.25 330.4375 C494.24453125 331.11683594 493.2390625 331.79617188 492.203125 332.49609375 C465.89751922 349.43117934 434.03991876 360.35255474 402.61328125 360.67578125 C401.81966187 360.6855751 401.02604248 360.69536896 400.20837402 360.70545959 C383.19736236 360.8723014 366.80001693 360.86386317 350.25 356.4375 C348.99098877 356.11604004 348.99098877 356.11604004 347.70654297 355.78808594 C335.32233687 352.57450725 323.73732225 348.04094029 312.25 342.4375 C311.60224609 342.12586914 310.95449219 341.81423828 310.28710938 341.49316406 C291.13885349 332.17539794 273.95178841 318.77542348 259.25 303.4375 C258.425 302.6125 257.6 301.7875 256.75 300.9375 C255.925 300.1125 255.1 299.2875 254.25 298.4375 C253.69054687 297.91285156 253.13109375 297.38820313 252.5546875 296.84765625 C241.5554834 286.31602965 232.86095349 273.35578578 223.8046875 261.17578125 C221.66439242 258.30358067 219.49671778 255.46392589 217.2578125 252.66796875 C216.82678223 252.12221191 216.39575195 251.57645508 215.95166016 251.01416016 C214.84281953 249.61695789 213.71894223 248.23172423 212.59375 246.84765625 C211.25 244.4375 211.25 244.4375 211.16796875 242.13671875 C212.81989499 238.01584861 215.40364046 234.71923663 218.0625 231.1875 C219.24443079 229.58663197 220.42539626 227.98505086 221.60546875 226.3828125 C222.2092334 225.5671582 222.81299805 224.75150391 223.43505859 223.91113281 C226.30414323 220.00077963 229.09037263 216.03322858 231.875 212.0625 C233.27835808 210.06310791 234.68251593 208.064439 236.09472656 206.07128906 C237.05910024 204.70747066 238.01151951 203.3352092 238.9609375 201.9609375 C239.38632812 201.45820312 239.81171875 200.95546875 240.25 200.4375 C240.91 200.4375 241.57 200.4375 242.25 200.4375 C243.8515625 202.32421875 243.8515625 202.32421875 245.875 205.125 C246.67977786 206.224846 247.48587671 207.32372607 248.29296875 208.421875 C248.7523584 209.04900391 249.21174805 209.67613281 249.68505859 210.32226562 C252.80644967 214.54125662 256.0025907 218.70388731 259.1875 222.875 C260.23200317 224.24410522 260.23200317 224.24410522 261.29760742 225.64086914 C262.66157597 227.42834279 264.02590365 229.21554245 265.390625 231.00244141 C266.99095112 233.09824665 268.58940183 235.1954649 270.1875 237.29296875 C297.69721316 273.3290232 329.18571866 300.99327759 375.43188477 307.7565918 C409.68655005 311.98625906 444.81076136 303.64758266 472.25 282.4375 C476.44933686 278.97456859 480.35742653 275.23780506 484.25 271.4375 C484.96542969 270.78394531 485.68085937 270.13039063 486.41796875 269.45703125 C507.53390393 249.68981848 521.22193883 217.49792448 522.35839844 188.68969727 C522.59926771 176.51888905 522.82550509 164.38784361 520.25 152.4375 C519.99347656 151.24640625 519.73695313 150.0553125 519.47265625 148.828125 C514.77891289 129.40851726 505.33002173 111.51620976 492.25 96.4375 C491.20392578 95.19226563 491.20392578 95.19226563 490.13671875 93.921875 C470.7475179 71.46759622 440.61099832 56.04935804 411.1171875 52.68359375 C374.26112115 50.33820771 339.5015961 58.68694733 311.25 83.4375 C310.46786133 84.12030029 310.46786133 84.12030029 309.66992188 84.81689453 C306.11844042 87.9449985 302.66997055 91.16622382 299.25 94.4375 C298.30125 95.345 297.3525 96.2525 296.375 97.1875 C290.16681311 103.25772718 284.64948812 109.64907603 279.25 116.4375 C278.25494236 117.64515954 277.25739668 118.85077191 276.2578125 120.0546875 C268.74106929 129.13603789 261.76183186 138.50990331 254.92236328 148.10791016 C252.07084454 152.08005495 249.15843747 156.00695106 246.25 159.9375 C243.91478602 163.10278314 241.58179788 166.26969959 239.25 169.4375 C238.43015625 170.5507666 238.43015625 170.5507666 237.59375 171.68652344 C230.62993862 181.16550947 223.96408513 190.79530242 217.48486328 200.61181641 C212.64308644 207.91952457 207.56637537 215.03018031 202.3984375 222.109375 C199.30110563 226.35224315 196.26923715 230.63884932 193.25 234.9375 C177.38264906 257.48915974 161.34526249 279.47990718 142.25 299.4375 C140.89648438 300.85482422 140.89648438 300.85482422 139.515625 302.30078125 C106.67700217 335.92376609 59.30908367 359.96285164 11.84924316 360.70814514 C-39.39752624 361.2475887 -87.36786057 345.34790166 -124.75 309.4375 C-125.24032715 308.97827148 -125.7306543 308.51904297 -126.23583984 308.04589844 C-160.12874371 276.22636926 -178.45954373 230.75866919 -179.98046875 184.64453125 C-180.92958894 137.49581885 -165.32393522 91.96978804 -132.75 57.4375 C-131.72195847 56.21435569 -130.7004673 54.98565717 -129.6875 53.75 C-126.38064837 49.88752561 -122.67251518 46.66226007 -118.75 43.4375 C-117.739375 42.60089844 -116.72875 41.76429688 -115.6875 40.90234375 C-82.56774543 13.92425562 -42.6165267 -0.03794327 0 0 Z " fill="#E8B84E" transform="translate(314.75,332.5625)"/>
<path d="M0 0 C9.89502385 5.53159319 14.02080298 13.75063307 17.453125 24.23046875 C22.12087832 41.96335514 19.72864082 61.19955593 11.12890625 77.25 C6.63847901 84.43841782 0.43618603 88.18211291 -7.75 90.2578125 C-15.59269238 91.26118568 -21.98419977 90.39319523 -28.75 86.2578125 C-29.36488281 85.89171875 -29.97976563 85.525625 -30.61328125 85.1484375 C-39.38898481 78.84394093 -43.47970348 66.3037781 -45.3125 56.0859375 C-47.41148566 37.71981301 -45.60549029 20.4650832 -33.9375 5.4453125 C-25.35252279 -4.14050402 -11.23995635 -5.15164666 0 0 Z " fill="#E8BA4E" transform="translate(658.75,466.7421875)"/>
<path d="M0 0 C37.05263158 0 37.05263158 0 48.96875 10.78125 C59.27807469 21.44004332 59.37810711 35.52537771 59.2109375 49.453125 C58.89621045 60.9775748 56.17924663 70.98776669 48.40625 79.80859375 C35.32718801 92.17817833 16.53208599 89 0 89 C0 59.63 0 30.26 0 0 Z " fill="#E8BA4E" transform="translate(230,466)"/>
<path d="M0 0 C36.89756098 0 36.89756098 0 45.625 8.6015625 C52.46717531 16.06874421 52.61262579 23.87998864 52.375 33.5625 C51.93542347 41.02274164 49.05168839 46.37830744 43.625 51.4375 C35.54494504 57.65562926 28.10243368 58 18 58 C18 68.23 18 78.46 18 89 C12.06 89 6.12 89 0 89 C0 59.63 0 30.26 0 0 Z " fill="#E9BB4F" transform="translate(689,466)"/>
<path d="M0 0 C6.6 0 13.2 0 20 0 C23.26547446 12.1406041 25.36767189 24.47083708 27.59594727 36.83496094 C28.11377849 39.70053177 28.63680058 42.56512134 29.16015625 45.4296875 C29.31541275 46.30164764 29.47066925 47.17360779 29.63063049 48.07199097 C30.44606202 52.52910064 31.42747596 56.73227821 33 61 C33.10831146 60.38327423 33.21662292 59.76654846 33.32821655 59.13113403 C34.46252022 52.67376308 35.59847156 46.21668348 36.73535156 39.75976562 C37.15862025 37.35456556 37.58147811 34.94929315 38.00390625 32.54394531 C38.61348474 29.07337343 39.22457265 25.60307009 39.8359375 22.1328125 C40.02247894 21.06886261 40.20902039 20.00491272 40.4012146 18.90872192 C41.51671225 12.58694458 42.71764813 6.29011334 44 0 C50.6 0 57.2 0 64 0 C61.88148039 10.96766099 59.43200881 21.80547864 56.76953125 32.65234375 C56.369984 34.28993748 55.97071251 35.92759851 55.57170105 37.56532288 C54.53382934 41.82207201 53.49227951 46.07791236 52.44989014 50.33355713 C51.38163367 54.69772696 50.31695615 59.06276968 49.25195312 63.42773438 C47.1714175 71.95266892 45.0866537 80.47656092 43 89 C35.74 89 28.48 89 21 89 C19.375 82.5 19.375 82.5 18.7890625 80.15185547 C17.78338826 76.12278194 16.77163612 72.09536963 15.75 68.0703125 C12.52790777 55.33559994 9.42923618 42.57200822 6.37213135 29.79681396 C5.91806618 27.90044321 5.46295821 26.00432181 5.0067749 24.10845947 C4.35931268 21.41552585 3.71618823 18.72159139 3.07421875 16.02734375 C2.87967606 15.2208992 2.68513336 14.41445465 2.48469543 13.58357239 C2.30371811 12.81985825 2.12274078 12.0561441 1.9362793 11.26928711 C1.77894821 10.61109482 1.62161713 9.95290253 1.45951843 9.27476501 C0.83982794 6.20709646 0.44259703 3.09817923 0 0 Z " fill="#E8BA4E" transform="translate(350,466)"/>
<path d="M0 0 C14.19 0 28.38 0 43 0 C43 5.61 43 11.22 43 17 C34.75 17 26.5 17 18 17 C18 22.94 18 28.88 18 35 C24.93 35 31.86 35 39 35 C39 40.61 39 46.22 39 52 C32.07 52 25.14 52 18 52 C18 58.93 18 65.86 18 73 C26.25 73 34.5 73 43 73 C43 78.28 43 83.56 43 89 C28.81 89 14.62 89 0 89 C0 59.63 0 30.26 0 0 Z " fill="#E7B74D" transform="translate(300,466)"/>
<path d="M0 0 C6.13095183 3.71414317 6.13095183 3.71414317 8.1875 6.75 C7.82808945 10.67784382 5.57588426 13.04337772 3.125 16 C2.39152344 16.89203125 1.65804687 17.7840625 0.90234375 18.703125 C0.33644531 19.37859375 -0.22945312 20.0540625 -0.8125 20.75 C-1.369375 20.316875 -1.92625 19.88375 -2.5 19.4375 C-7.81218831 15.51697701 -7.81218831 15.51697701 -14.125 14.125 C-17.76834557 14.50173511 -17.76834557 14.50173511 -20.3125 16.3125 C-22.43261145 19.75768111 -22.43064926 21.76637143 -21.8125 25.75 C-18.422434 30.54003771 -15.26669938 32.94091918 -10 35.6875 C-1.59594261 40.28228773 5.30827405 44.82560469 9.3359375 53.8125 C11.58441107 61.56870239 11.48275673 69.91651093 8.125 77.3125 C4.23305904 83.87538084 -0.77808441 88.17246603 -8.1640625 90.27734375 C-17.48920307 91.941565 -26.52796535 91.60594393 -34.8125 86.75 C-37.34517102 84.87901781 -39.52904988 82.93416968 -41.8125 80.75 C-41.3012988 76.24656089 -39.63728642 73.87474574 -36.75 70.4375 C-35.64978516 69.11298828 -35.64978516 69.11298828 -34.52734375 67.76171875 C-33.96144531 67.09785156 -33.39554688 66.43398438 -32.8125 65.75 C-32.25820313 66.17152344 -31.70390625 66.59304688 -31.1328125 67.02734375 C-30.40835938 67.57519531 -29.68390625 68.12304688 -28.9375 68.6875 C-28.21820312 69.23277344 -27.49890625 69.77804687 -26.7578125 70.33984375 C-23.63860926 72.60095292 -21.69614349 72.93266708 -17.875 73 C-16.99972656 73.02578125 -16.12445312 73.0515625 -15.22265625 73.078125 C-12.35496454 72.68770992 -11.55710945 72.00322599 -9.8125 69.75 C-8.24314406 66.61128812 -8.46048897 64.21144178 -8.8125 60.75 C-12.59260395 56.21682846 -17.2170232 53.46768517 -22.1875 50.4375 C-30.08959646 45.45450532 -37.45459589 40.41068044 -40.37109375 31.07421875 C-41.9398503 22.81395196 -41.66233276 15.29161121 -37.4375 7.91015625 C-29.01891833 -3.28089102 -12.38908665 -6.00963159 0 0 Z " fill="#E9BB4F" transform="translate(789.8125,466.25)"/>
<path d="M0 0 C3.45886752 0.87072186 5.00035017 2.56169108 7.03125 5.421875 C13.43189495 16.68454832 13.02006195 33.30707695 9.87109375 45.6640625 C7.90903103 51.67365082 5.55159398 55.20193315 0.25 58.56640625 C-4.07318363 58.7180969 -6.04319908 58.09650694 -9.5 55.50390625 C-17.32734715 45.28486969 -16.60835347 31.30600526 -15.40625 19.06640625 C-14.43029585 12.56004526 -12.86207646 7.65328723 -9.125 2.19140625 C-6.00961676 0.05982824 -3.73474127 -0.19042266 0 0 Z " fill="#1E1D1C" transform="translate(647.75,481.43359375)"/>
<path d="M0 0 C12 1.2 12 1.2 17 5 C22.31147204 11.96321029 22.20777823 18.811756 22.25 27.1875 C22.270625 28.19103516 22.29125 29.19457031 22.3125 30.22851562 C22.34991604 37.41707309 21.88250725 44.30825057 17.31640625 50.15625 C16.73761719 50.5996875 16.15882813 51.043125 15.5625 51.5 C14.98628906 51.9640625 14.41007812 52.428125 13.81640625 52.90625 C9.19618664 55.68831772 5.69527795 55 0 55 C0 36.85 0 18.7 0 0 Z " fill="#1D1D1C" transform="translate(248,483)"/>
<path d="M0 0 C14.19 0 28.38 0 43 0 C43 5.28 43 10.56 43 16 C34.75 16 26.5 16 18 16 C18 15.67 18 15.34 18 15 C25.59 15 33.18 15 41 15 C41 10.71 41 6.42 41 2 C28.13 2 15.26 2 2 2 C2 30.38 2 58.76 2 88 C15.2 88 28.4 88 42 88 C42 83.38 42 78.76 42 74 C34.08 74 26.16 74 18 74 C18 73.67 18 73.34 18 73 C26.25 73 34.5 73 43 73 C43 78.28 43 83.56 43 89 C28.81 89 14.62 89 0 89 C0 59.63 0 30.26 0 0 Z " fill="#FADB59" transform="translate(300,466)"/>
<path d="M0 0 C10.48453608 1.16494845 10.48453608 1.16494845 14 5 C16.25371975 8.97083957 16.39556434 12.49056654 16 17 C14.54829301 20.59470303 13.06997933 23.5695997 10 26 C7 27 7 27 0 27 C0 18.09 0 9.18 0 0 Z " fill="#211F1D" transform="translate(707,482)"/>
<path d="M0 0 C1.25159912 0.00523682 2.50319824 0.01047363 3.79272461 0.01586914 C4.78942421 0.01799156 4.78942421 0.01799156 5.80625916 0.02015686 C7.93590735 0.02577021 10.06545175 0.03832485 12.19506836 0.05102539 C13.63582205 0.05603868 15.07657739 0.06060188 16.51733398 0.06469727 C20.05577938 0.07574394 23.59416375 0.09301747 27.13256836 0.11352539 C27.13256836 0.44352539 27.13256836 0.77352539 27.13256836 1.11352539 C17.56256836 1.11352539 7.99256836 1.11352539 -1.86743164 1.11352539 C-1.86743164 30.48352539 -1.86743164 59.85352539 -1.86743164 90.11352539 C4.07256836 90.11352539 10.01256836 90.11352539 16.13256836 90.11352539 C16.13256836 79.88352539 16.13256836 69.65352539 16.13256836 59.11352539 C20.09256836 59.11352539 24.05256836 59.11352539 28.13256836 59.11352539 C28.13256836 59.44352539 28.13256836 59.77352539 28.13256836 60.11352539 C23.18256836 60.60852539 23.18256836 60.60852539 18.13256836 61.11352539 C18.14042358 62.46885376 18.14042358 62.46885376 18.1484375 63.8515625 C18.16544522 67.19304028 18.17800169 70.53447231 18.1875 73.87597656 C18.19253937 75.32422612 18.19937089 76.77247056 18.20800781 78.22070312 C18.22009083 80.29827127 18.22580047 82.37577236 18.23022461 84.45336914 C18.23807983 86.33076782 18.23807983 86.33076782 18.24609375 88.24609375 C18.13256836 91.11352539 18.13256836 91.11352539 17.13256836 92.11352539 C13.99433386 92.36319106 10.84207223 92.2987433 7.69506836 92.30102539 C6.36765625 92.31939453 6.36765625 92.31939453 5.01342773 92.33813477 C4.1671582 92.34006836 3.32088867 92.34200195 2.44897461 92.34399414 C1.66981689 92.34810303 0.89065918 92.35221191 0.08789062 92.35644531 C-1.86743164 92.11352539 -1.86743164 92.11352539 -3.86743164 90.11352539 C-4.06085518 87.28728312 -4.12964375 84.55940117 -4.11035156 81.73242188 C-4.11224991 80.86566833 -4.11414825 79.99891479 -4.11610413 79.105896 C-4.11981824 76.23204594 -4.10909949 73.35844685 -4.09790039 70.48461914 C-4.09670893 68.49447153 -4.09625536 66.50432336 -4.09651184 64.51417542 C-4.09494592 60.34030648 -4.0866474 56.16652318 -4.07324219 51.99267578 C-4.05624119 46.62993026 -4.05242809 41.26727886 -4.05318737 35.90450954 C-4.05291608 31.79457188 -4.04744162 27.68465498 -4.04018593 23.5747242 C-4.03699345 21.59667175 -4.03503051 19.61861694 -4.03429222 17.64056206 C-4.03213539 14.88207829 -4.02340582 12.12369643 -4.01269531 9.36523438 C-4.0131485 8.53975601 -4.01360168 7.71427765 -4.0140686 6.86378479 C-3.97579628 0.157407 -3.97579628 0.157407 0 0 Z " fill="#070814" transform="translate(690.867431640625,464.886474609375)"/>
<path d="M0 0 C14.19 0 28.38 0 43 0 C43 5.28 43 10.56 43 16 C34.75 16 26.5 16 18 16 C18 15.67 18 15.34 18 15 C25.59 15 33.18 15 41 15 C41 10.71 41 6.42 41 2 C27.47 2 13.94 2 0 2 C0 1.34 0 0.68 0 0 Z " fill="#F2CF54" transform="translate(300,466)"/>
<path d="M0 0 C3.96 0 7.92 0 12 0 C12 0.33 12 0.66 12 1 C8.7 1.33 5.4 1.66 2 2 C2.00785522 3.35532837 2.00785522 3.35532837 2.01586914 4.73803711 C2.03287686 8.07951489 2.04543333 11.42094692 2.05493164 14.76245117 C2.05997101 16.21070073 2.06680253 17.65894517 2.07543945 19.10717773 C2.08752247 21.18474588 2.09323211 23.26224697 2.09765625 25.33984375 C2.10551147 27.21724243 2.10551147 27.21724243 2.11352539 29.13256836 C2 32 2 32 1 33 C-0.41570123 33.08651611 -1.835595 33.10704904 -3.25390625 33.09765625 C-4.10791016 33.09443359 -4.96191406 33.09121094 -5.84179688 33.08789062 C-6.73962891 33.07951172 -7.63746094 33.07113281 -8.5625 33.0625 C-9.46419922 33.05798828 -10.36589844 33.05347656 -11.29492188 33.04882812 C-13.53001314 33.03700225 -15.76497437 33.0205222 -18 33 C-18 32.34 -18 31.68 -18 31 C-12.06 31 -6.12 31 0 31 C0 20.77 0 10.54 0 0 Z " fill="#110F17" transform="translate(707,524)"/>
<path d="M0 0 C10.125 1.125 10.125 1.125 14 5 C13.67 5.99 13.34 6.98 13 8 C12.29875 7.195625 11.5975 6.39125 10.875 5.5625 C7.87632907 2.43097478 7.87632907 2.43097478 2 2 C2 9.59 2 17.18 2 25 C4.31 25 6.62 25 9 25 C8.34 25.66 7.68 26.32 7 27 C4.69 27 2.38 27 0 27 C0 18.09 0 9.18 0 0 Z " fill="#171418" transform="translate(707,482)"/>
<path d="M0 0 C9.24 0 18.48 0 28 0 C28 0.33 28 0.66 28 1 C32.62 1.66 37.24 2.32 42 3 C42 3.33 42 3.66 42 4 C36.66099771 3.9311121 31.32277777 3.84314043 25.984375 3.73754883 C24.16870811 3.70431564 22.35293832 3.67627866 20.53710938 3.65356445 C17.92533558 3.61998859 15.31450346 3.56767238 12.703125 3.51171875 C11.89256653 3.50532883 11.08200806 3.4989389 10.24688721 3.49235535 C5.42579746 3.36687064 4.02949241 3.02211931 0 0 Z " fill="#2F281E" transform="translate(303,330)"/>
<path d="M0 0 C0.99 1.485 0.99 1.485 2 3 C2.66 2.67 3.32 2.34 4 2 C3.67 4.31 3.34 6.62 3 9 C3.99 7.68 4.98 6.36 6 5 C5.03644647 17.66970387 5.03644647 17.66970387 4 23 C3.67 23 3.34 23 3 23 C2.4935186 20.29273634 1.994649 17.58442876 1.5 14.875 C1.35691406 14.11445312 1.21382813 13.35390625 1.06640625 12.5703125 C0.29687544 8.31957086 -0.16644376 4.34140803 0 0 Z " fill="#0A0912" transform="translate(379,510)"/>
<path d="M0 0 C6.6 0 13.2 0 20 0 C19.67 1.65 19.34 3.3 19 5 C18.67 4.01 18.34 3.02 18 2 C12.39 2 6.78 2 1 2 C0.67 3.32 0.34 4.64 0 6 C0 4.02 0 2.04 0 0 Z " fill="#EFCE54" transform="translate(394,466)"/>
<path d="M0 0 C0.33 0 0.66 0 1 0 C1.92017937 10.68430493 1.92017937 10.68430493 -0.3359375 13.91015625 C-2 15.25 -2 15.25 -5 17 C-5.66 16.67 -6.32 16.34 -7 16 C-5.824375 14.824375 -5.824375 14.824375 -4.625 13.625 C-1.21240925 9.6033633 -0.67565661 5.10272004 0 0 Z " fill="#ECD156" transform="translate(723,492)"/>
<path d="M0 0 C4.83290538 4.049191 6.3833652 7.96719209 8 14 C7.01 14 6.02 14 5 14 C4.35366725 12.22934889 3.7079517 10.45847247 3.0625 8.6875 C2.70285156 7.70136719 2.34320313 6.71523438 1.97265625 5.69921875 C1.29114035 3.8079437 0.6357189 1.90715671 0 0 Z " fill="#E8C954" transform="translate(279,478)"/>
<path d="M0 0 C0.33 0 0.66 0 1 0 C1.05423638 1.91635217 1.09289963 3.83314925 1.125 5.75 C1.14820313 6.81734375 1.17140625 7.8846875 1.1953125 8.984375 C1.00487687 11.92470106 0.52670104 13.52361878 -1 16 C-1.33 16 -1.66 16 -2 16 C-2.20674944 10.21101581 -1.59162079 5.57067277 0 0 Z " fill="#EDCF55" transform="translate(393,473)"/>
<path d="M0 0 C0.10477512 5.78591511 -0.00749455 11.29309366 -1 17 C-1.33 17 -1.66 17 -2 17 C-2.33 11.72 -2.66 6.44 -3 1 C-1 0 -1 0 0 0 Z " fill="#2E2920" transform="translate(891,522)"/>
<path d="M0 0 C0.99 0.33 1.98 0.66 3 1 C2.67 1.99 2.34 2.98 2 4 C1.32811503 6.33183607 0.66084583 8.66501142 0 11 C-0.33 11 -0.66 11 -1 11 C-1.22174933 9.54364629 -1.42698698 8.08477044 -1.625 6.625 C-1.74101562 5.81289063 -1.85703125 5.00078125 -1.9765625 4.1640625 C-1.98429687 3.44992187 -1.99203125 2.73578125 -2 2 C-1.34 1.34 -0.68 0.68 0 0 Z " fill="#292620" transform="translate(383,513)"/>
<path d="M0 0 C2 2 2 2 2.1953125 3.9453125 C2.13020833 5.96354167 2.06510417 7.98177083 2 10 C1.67 9.01 1.34 8.02 1 7 C0.34 7 -0.32 7 -1 7 C-0.67 4.69 -0.34 2.38 0 0 Z " fill="#E7C653" transform="translate(379,519)"/>
<path d="M0 0 C-0.33 3.3 -0.66 6.6 -1 10 C-2.88343932 6.23312136 -3.22057835 4.97041037 -3 1 C-1 0 -1 0 0 0 Z " fill="#2F2921" transform="translate(659,499)"/>
<path d="M0 0 C2 2 2 2 2.3125 4.5 C2.209375 5.325 2.10625 6.15 2 7 C1.01 7.66 0.02 8.32 -1 9 C-1.09765625 2.84765625 -1.09765625 2.84765625 -1 1 C-0.67 0.67 -0.34 0.34 0 0 Z " fill="#302A20" transform="translate(134,492)"/>
</svg>
