<?xml version="1.0" encoding="UTF-8"?>
<svg version="1.1" xmlns="http://www.w3.org/2000/svg" width="1024" height="1024">
<path d="M0 0 C337.92 0 675.84 0 1024 0 C1024 337.92 1024 675.84 1024 1024 C686.08 1024 348.16 1024 0 1024 C0 686.08 0 348.16 0 0 Z " fill="#1F1F1E" transform="translate(0,0)"/>
<path d="M0 0 C337.92 0 675.84 0 1024 0 C1024 337.92 1024 675.84 1024 1024 C686.08 1024 348.16 1024 0 1024 C0 686.08 0 348.16 0 0 Z M84.9921875 132.37890625 C78.97616673 140.4914191 73.88046201 150.43441233 73.87119883 160.71377462 C73.86792664 161.66548822 73.86465445 162.61720182 73.86128309 163.59775522 C73.86276672 164.64239914 73.86425034 165.68704306 73.86577892 166.76334286 C73.86342669 167.87839011 73.86107446 168.99343737 73.85865095 170.14227393 C73.8519476 173.91142284 73.85241958 177.68053739 73.85282898 181.44969177 C73.85007982 184.16624876 73.84584365 186.88280299 73.8416875 189.59935814 C73.83235473 196.30352085 73.82843831 203.00767694 73.82616853 209.71184533 C73.82320819 217.73977711 73.81451173 225.7677001 73.80575425 233.79562727 C73.78490117 253.201836 73.77443842 272.60804625 73.76562465 292.01426357 C73.76141909 301.19408285 73.75619695 310.37390148 73.75094012 319.55372021 C73.73304855 350.97411528 73.7180526 382.39451053 73.71061993 413.81490993 C73.71014517 415.78785199 73.70966928 417.76079405 73.70919226 419.7337361 C73.70895589 420.71214446 73.70871951 421.69055282 73.70847597 422.69860992 C73.70727477 427.65576274 73.70605932 432.61291555 73.70483398 437.57006836 C73.70459383 438.55383312 73.70435368 439.53759789 73.70410626 440.55117371 C73.69621392 472.44478641 73.67278413 504.33836192 73.64027804 536.23195838 C73.605978 569.94723376 73.58626859 603.66248738 73.58297569 637.3777805 C73.58255814 641.07926215 73.58207858 644.78074378 73.58155251 648.48222542 C73.58142931 649.39364223 73.58130612 650.30505905 73.5811792 651.24409456 C73.5788473 665.91037431 73.56318783 680.57661086 73.54271066 695.24287522 C73.52245177 709.98679602 73.51697565 724.73066495 73.52648129 739.47459709 C73.53169612 748.23244806 73.52581967 756.9901263 73.50394662 765.74795239 C73.49043139 771.60213625 73.4915219 777.4562013 73.50434858 783.31038636 C73.51124063 786.64346892 73.5097081 789.97595341 73.49478849 793.3090493 C73.12626983 811.58895532 73.12626983 811.58895532 78 829 C78.37795281 829.83535434 78.75590561 830.67070867 79.14531153 831.53137678 C85.5876758 844.85961025 97.50150596 853.47256837 110.84765625 858.95703125 C119.37086798 861.77697862 127.26993492 862.28811245 136.22866917 862.26006222 C137.56284725 862.26306269 138.89702359 862.26693495 140.23119691 862.27159455 C143.8937663 862.28185442 147.55623882 862.27972595 151.21881631 862.27553919 C155.20496469 862.2731702 159.19108948 862.28234564 163.17722887 862.29002339 C170.16247916 862.30186412 177.14770333 862.3062364 184.13296318 862.30570221 C194.52062702 862.30490872 204.90825791 862.31546151 215.29591294 862.32811778 C236.00990333 862.35285409 256.72388571 862.36164013 277.43788883 862.36665427 C278.51055863 862.36691544 279.58322843 862.36717662 280.68840337 862.36744571 C281.76323132 862.36770598 282.83805928 862.36796626 283.94545777 862.36823442 C295.85719382 862.37131691 307.76892765 862.37782173 319.68066216 862.3844471 C355.65949043 862.40409453 391.63831632 862.42049919 427.61715031 862.42332363 C428.76790081 862.42341769 429.91865131 862.42351175 431.10427304 862.42360866 C435.76775014 862.42398714 440.43122724 862.42435114 445.09470434 862.42471164 C448.60472151 862.42498336 452.11473869 862.42526004 455.62475586 862.42553711 C456.7846002 862.42562513 457.94444453 862.42571315 459.13943567 862.42580384 C495.5805298 862.42870914 532.02157088 862.45080395 568.46264648 862.48706055 C609.40308426 862.52779269 650.34348588 862.55148224 691.28394502 862.55178314 C695.65017252 862.55187997 700.0164 862.55204669 704.38262749 862.55226326 C705.45770444 862.55230737 706.53278139 862.55235149 707.64043644 862.55239694 C724.93635074 862.55351649 742.23221186 862.57092086 759.52810904 862.59408258 C776.91404816 862.61693283 794.29991548 862.62114532 811.6858641 862.60653328 C822.01170876 862.59838619 832.33732717 862.60405737 842.66314435 862.62971413 C849.56616371 862.64548069 856.46902269 862.64297363 863.37203825 862.6258074 C867.30157183 862.61654641 871.23067009 862.61500747 875.16016949 862.63577347 C897.90868308 862.7482707 917.91343961 861.76558859 935.375 845.1875 C947.21983174 832.60236628 951.15869785 818.04772833 951.13422108 801.12108707 C951.13657331 800.01783831 951.13892554 798.91458955 951.14134905 797.77790901 C951.14803485 794.06091897 951.14758095 790.34396393 951.14717102 786.62696838 C951.1504699 783.9431091 951.15415781 781.25925288 951.1583125 778.57539505 C951.1676335 771.95980593 951.1715597 765.34422351 951.17383147 758.72862865 C951.17679485 750.80500138 951.18549307 742.88138297 951.19424575 734.95776036 C951.2150858 715.80554757 951.22555933 696.65333325 951.23437535 677.50111178 C951.23858257 668.4397511 951.24380446 659.37839109 951.24905988 650.31703098 C951.26694986 619.29590987 951.28194558 588.27478856 951.28938007 557.25366306 C951.28985483 555.30629096 951.29033072 553.35891886 951.29080774 551.41154676 C951.29104411 550.44583063 951.29128049 549.48011449 951.29152403 548.48513423 C951.29272522 543.59238441 951.29394067 538.69963459 951.29516602 533.80688477 C951.29552624 532.35041667 951.29552624 532.35041667 951.29589374 530.86452497 C951.30378588 499.38627216 951.32721606 467.90805704 951.35972196 436.42982069 C951.39403015 403.1454765 951.41373213 369.86115435 951.41702431 336.57679218 C951.41744185 332.92192677 951.41792141 329.26706137 951.41844749 325.61219597 C951.41857069 324.7122722 951.41869388 323.81234844 951.4188208 322.88515425 C951.4211516 308.41092476 951.43680483 293.93673908 951.45728934 279.46252519 C951.47755873 264.90924897 951.48301937 250.35602532 951.47351871 235.8027376 C951.46830808 227.16082882 951.47416045 218.51909518 951.49605338 209.87721165 C951.50958583 204.09782989 951.50846295 198.31856836 951.49565142 192.53918534 C951.48877093 189.25055833 951.49026334 185.9623307 951.50521151 182.6737209 C951.59662657 161.23009403 950.28502127 143.57410394 934.8125 127.1875 C924.52522138 117.40823514 911.73896619 110.88211586 897.38090998 110.87119883 C895.68803763 110.86629054 895.68803763 110.86629054 893.96096584 110.86128309 C892.72350464 110.86276672 891.48604344 110.86425034 890.21108341 110.86577892 C888.87584728 110.86382546 887.54061173 110.86143641 886.20537707 110.85865095 C882.52125499 110.85224715 878.8371547 110.85208963 875.15302811 110.85292836 C871.15048038 110.85275894 867.14794048 110.84685363 863.14539665 110.8416875 C855.20000778 110.83235601 847.25462449 110.82843853 839.30923082 110.82616853 C829.79484687 110.82320788 820.28047031 110.81451127 810.76609024 110.80575425 C787.76757767 110.78490304 764.76906381 110.77443894 741.77054399 110.76562465 C730.89197383 110.76141905 720.01340422 110.75619693 709.13483453 110.75094012 C671.90132316 110.73304922 634.66781163 110.71805294 597.43429661 110.71061993 C595.09644355 110.71014517 592.7585905 110.70966928 590.42073744 110.70919226 C589.2613643 110.70895589 588.10199116 110.70871951 586.9074855 110.70847597 C581.03345713 110.70727477 575.15942876 110.70605932 569.28540039 110.70483398 C567.5368175 110.70447376 567.5368175 110.70447376 565.7529097 110.70410626 C527.95575186 110.69621299 490.15862539 110.67278093 452.36148125 110.64027804 C412.40687243 110.60598257 372.45228198 110.58626904 332.49765819 110.58297569 C328.11174483 110.58255814 323.72583148 110.58207858 319.33991814 110.58155251 C318.25997088 110.58142931 317.18002363 110.58130612 316.06735071 110.5811792 C298.68528389 110.5788468 281.30325351 110.56318463 263.92119968 110.54271066 C246.44968057 110.52245779 228.97820523 110.51697282 211.50667656 110.52648129 C201.12713803 110.53169835 190.7477452 110.52580902 180.36822762 110.50394662 C173.43183069 110.49044074 166.49553407 110.49151369 159.55913614 110.50434858 C155.60887086 110.51124658 151.65888416 110.51191031 147.70864374 110.49478849 C144.10784533 110.47930888 140.50754767 110.48258478 136.90676351 110.50019877 C135.01631259 110.50478531 133.12584414 110.48992529 131.23545441 110.47403899 C112.45168599 110.62490462 97.08572835 118.05017788 84.9921875 132.37890625 Z " fill="#1F1F1E" transform="translate(0,0)"/>
<path d="M0 0 C1.34663874 -0.00388021 2.69327334 -0.00951146 4.03989843 -0.0167096 C7.71382897 -0.03134316 11.3873283 -0.02136776 15.06124473 -0.0070976 C19.06820739 0.00401142 23.07511291 -0.00822452 27.08207113 -0.01740509 C34.0959832 -0.03028131 41.10976878 -0.02836873 48.12368107 -0.0166254 C58.5535799 0.00078928 68.98337964 -0.00475401 79.41328366 -0.01479231 C98.04212796 -0.03197072 116.67091334 -0.02645225 135.29975641 -0.01143513 C151.60036273 0.00162042 167.90094862 0.00681188 184.20156002 0.00424671 C185.8239067 0.00400609 185.8239067 0.00400609 187.47902807 0.0037606 C191.86949881 0.00309701 196.25996955 0.0023946 200.65044027 0.00163526 C241.82683754 -0.00538711 283.00319884 0.01009748 324.17958696 0.03625872 C360.76241482 0.0593783 397.34520316 0.06475996 433.92803669 0.05452633 C443.29761821 0.05192432 452.66719974 0.0493393 462.03678131 0.04692841 C463.1902891 0.04663096 464.34379689 0.04633351 465.53225945 0.04602705 C496.10347897 0.03841297 526.67469525 0.04482349 557.24591333 0.05562443 C560.53516211 0.05677223 563.82441089 0.05791541 567.11365968 0.05905125 C569.29564586 0.0598065 571.47763204 0.06057214 573.65961821 0.06134826 C589.95206367 0.06700709 606.2444989 0.06567633 622.53694439 0.06112003 C641.05955199 0.05601367 659.58212131 0.06185898 678.10471936 0.08201433 C688.47157286 0.09300474 698.83835108 0.09579004 709.20520688 0.0867258 C716.12901385 0.08150858 723.05275638 0.08719836 729.97654982 0.10177914 C733.92188016 0.10978739 737.86705831 0.11309813 741.81238785 0.10320658 C745.40506523 0.09430169 748.99745048 0.09931152 752.59010138 0.11518602 C754.48346428 0.12003772 756.37684768 0.11027913 758.270188 0.09983739 C774.00088152 0.20681625 787.50747626 5.31889609 798.91558552 16.28963375 C799.63488239 17.01924313 800.35417927 17.7488525 801.09527302 18.50057125 C801.95765583 19.34748531 801.95765583 19.34748531 802.83746052 20.21150875 C813.24764482 31.2689584 816.57512666 46.39641238 816.47279644 61.12335777 C816.47933692 62.7895143 816.47933692 62.7895143 816.48600954 64.48933056 C816.49692147 68.19587592 816.4865624 71.90204584 816.47622395 75.60858822 C816.47968211 78.29906057 816.48432507 80.9895074 816.49040568 83.67997271 C816.50121269 89.5216244 816.50092938 95.36319283 816.4932642 101.20484829 C816.48189667 109.8917706 816.4877284 118.57862294 816.49688912 127.26554482 C816.51267364 142.78243028 816.51132218 158.29927865 816.50265238 173.81616762 C816.49510227 187.395971 816.49313722 200.97576079 816.49672031 214.55556583 C816.49706405 215.90734574 816.49706405 215.90734574 816.49741472 217.28643433 C816.49834876 220.94476208 816.49930396 224.60308982 816.50029402 228.26141756 C816.50946891 262.57235258 816.50115411 296.883264 816.48500332 331.19419537 C816.47076796 361.6676712 816.47203962 392.14110942 816.4863863 422.61458492 C816.50245574 456.86172184 816.50881699 491.10883791 816.49954951 525.35597807 C816.49858738 529.00790568 816.49764885 532.65983329 816.49672031 536.3117609 C816.49636447 537.66053032 816.49636447 537.66053032 816.49600143 539.0365476 C816.49259118 552.60607811 816.49657582 566.17559353 816.50415897 579.74512196 C816.51274017 595.17740256 816.510585 610.60964032 816.49431674 626.04191559 C816.48551546 634.67535345 816.48492187 643.30869849 816.49625527 651.94213393 C816.50299453 657.71311587 816.49877388 663.48402357 816.48574096 669.25499454 C816.47862286 672.54029935 816.47778686 675.82538428 816.48695891 679.11068939 C816.54103593 700.09087464 815.80097835 718.25153515 800.44292927 734.25057125 C787.07979137 747.05783819 771.92615877 751.9837642 753.60933495 751.87809467 C752.27161397 751.88123013 750.93389554 751.88567835 749.59618273 751.89130777 C745.93308054 751.902942 742.27021698 751.89602558 738.60711887 751.88597391 C734.6170283 751.87834301 730.62697344 751.88815178 726.63688797 751.89570391 C719.64792515 751.90652783 712.65903188 751.90621714 705.67006588 751.89856243 C695.27714654 751.88721049 684.88428582 751.89301856 674.49136686 751.90218735 C655.92887801 751.9179839 637.36642013 751.91661563 618.80392833 751.90795062 C602.558983 751.90040466 586.31404902 751.89843351 570.06910229 751.90201855 C568.99163578 751.9022477 567.91416927 751.90247686 566.80405226 751.90271296 C562.43027965 751.90364697 558.05650704 751.90460217 553.68273444 751.90559225 C512.65026916 751.91476997 471.61782362 751.90644782 430.58536139 751.89030156 C394.1305655 751.87606568 357.67580105 751.87733769 321.22100544 751.89168453 C280.26520983 751.90774886 239.30943166 751.91411809 198.35363334 751.90484774 C193.98750874 751.90388559 189.62138413 751.90294707 185.25525951 751.90201855 C184.18020587 751.90178131 183.10515223 751.90154408 181.9975212 751.90129966 C165.76348926 751.89788732 149.52946992 751.90187795 133.29543972 751.90945721 C114.83573872 751.9180326 96.37607355 751.91589561 77.91637702 751.89961497 C67.58529551 751.89080396 57.25429158 751.89023419 46.92321208 751.9015535 C40.02187065 751.90828102 33.1205914 751.90409327 26.21925918 751.89103919 C22.28752421 751.88390489 18.35594335 751.88145846 14.42421324 751.89225714 C10.8426687 751.90199361 7.26141408 751.89776596 3.67989041 751.88271516 C1.79488415 751.87830038 -0.09013938 751.88848262 -1.97511932 751.899378 C-18.644661 751.78963081 -33.69525242 746.48650564 -45.79144573 734.746665 C-56.74816149 723.10135713 -61.22486904 710.06396313 -61.16199589 694.24224377 C-61.16550196 693.12228154 -61.16900804 692.00231931 -61.17262036 690.84841883 C-61.1819419 687.08660729 -61.17700899 683.3249503 -61.17215252 679.56313229 C-61.17478484 676.84240778 -61.18040988 674.12169125 -61.18588316 671.40097117 C-61.19618241 665.48085743 -61.19902709 659.56077638 -61.19697094 653.64065456 C-61.19392078 644.83703182 -61.20224527 636.03344526 -61.21272019 627.22982955 C-61.23206409 610.59146047 -61.23768855 593.95310371 -61.23883431 577.31472471 C-61.23975331 564.46604469 -61.24386957 551.61736951 -61.25023556 538.76869106 C-61.25203064 535.07051302 -61.25381027 531.37233496 -61.25558531 527.6741569 C-61.25602741 526.75478509 -61.25646951 525.83541327 -61.256925 524.8881817 C-61.26923374 499.02722946 -61.27712609 473.1662789 -61.27623844 447.3053236 C-61.27620728 446.33026658 -61.27617613 445.35520956 -61.27614402 444.35060535 C-61.27597781 439.40858499 -61.27577973 434.46656463 -61.27557461 429.52454427 C-61.27553472 428.54303718 -61.27549483 427.56153008 -61.27545373 426.55028035 C-61.27537286 424.56543383 -61.27528926 422.5805873 -61.27520295 420.59574078 C-61.27397738 389.71341284 -61.28899146 358.83112881 -61.31634808 327.94881344 C-61.34706877 293.25454447 -61.36428059 258.56030435 -61.36242163 223.86602092 C-61.36227237 220.16658545 -61.36217496 216.46714998 -61.362113 212.7677145 C-61.36208969 211.85681626 -61.36206638 210.94591802 -61.36204237 210.00741681 C-61.36198082 195.34860111 -61.37475261 180.68982354 -61.39197753 166.03101918 C-61.40893069 151.29880231 -61.41091032 136.56664122 -61.39775889 121.83442 C-61.39036771 113.08300703 -61.39403269 104.33176351 -61.41364357 95.58036849 C-61.42564167 89.73188834 -61.42305441 83.88353093 -61.40870257 78.03505641 C-61.40093792 74.70448684 -61.40160705 71.37451249 -61.41561727 68.04392365 C-61.42973524 64.4497366 -61.41915298 60.8564209 -61.40250492 57.2622633 C-61.41244128 56.23720625 -61.42237764 55.2121492 -61.4326151 54.15602982 C-61.29550833 40.14505764 -55.31434185 26.94998496 -45.77972698 16.75057125 C-32.59061491 4.45412328 -17.84487488 -0.14177627 0 0 Z M-34.90472698 178.50057125 C-34.96660198 264.44494625 -35.02847698 350.38932125 -35.09222698 438.93807125 C-35.11953899 466.10820553 -35.14685101 493.27833981 -35.17499065 521.27181149 C-35.18502191 545.5571579 -35.18502191 545.5571579 -35.19105816 569.84250546 C-35.1940459 581.4020572 -35.20699597 592.96155495 -35.22474726 604.5210897 C-35.24260086 616.30637514 -35.24900271 628.09162447 -35.24506183 639.87692291 C-35.24325083 646.27433192 -35.24616654 652.67164165 -35.26237237 659.06903255 C-35.27693176 664.85149472 -35.27772286 670.63378707 -35.26743031 676.4162569 C-35.26615575 678.50892443 -35.26998135 680.60160244 -35.27937472 682.69424927 C-35.29141402 685.54333074 -35.28492527 688.39180118 -35.27387047 691.24087334 C-35.28175154 692.05473437 -35.28963262 692.86859541 -35.29775251 693.70711889 C-35.21800759 702.79633106 -32.44956197 711.03720724 -25.90472698 717.50057125 C-20.00770354 721.72585285 -14.88265419 724.6232424 -7.54225534 724.63052309 C-5.85888777 724.63581571 -5.85888777 724.63581571 -4.14151278 724.64121526 C-2.90086285 724.64001749 -1.66021293 724.63881971 -0.38196754 724.63758564 C1.59412802 724.64156338 1.59412802 724.64156338 3.6101447 724.64562148 C7.29098105 724.65287528 10.97179703 724.65385075 14.65263955 724.65384425 C18.64809151 724.65491146 22.64353433 724.66169933 26.63898128 724.66775095 C34.57437793 724.67883922 42.50977016 724.68447833 50.44517319 724.68845983 C59.94579595 724.69346389 69.4464101 724.70419062 78.94702778 724.71494157 C101.91327251 724.74058735 124.8795206 724.75560999 147.84577554 724.76845203 C155.45109055 724.77270528 163.05640533 724.77727096 170.66172004 724.78203535 C211.08169766 724.80729382 251.50167569 724.82934652 291.92165947 724.8417635 C301.28918236 724.84468493 310.65670524 724.84765242 320.0242281 724.85066891 C321.76995967 724.85122527 321.76995967 724.85122527 323.55095855 724.85179287 C361.2924458 724.86395082 399.03388644 724.89489821 436.7753518 724.93659043 C475.56142048 724.97935859 514.34746454 725.00600203 553.13355745 725.01123821 C558.6094886 725.01197868 564.08541971 725.01288937 569.56135082 725.01389599 C571.17796629 725.01418191 571.17796629 725.01418191 572.82724065 725.01447361 C590.1860418 725.01798997 607.54478465 725.03830071 624.90356438 725.06469263 C642.34613849 725.09081243 659.78864512 725.09857519 677.23123599 725.08759134 C687.5983068 725.08160632 697.96514902 725.08956929 708.33218531 725.11742217 C715.25523343 725.13464823 722.17812532 725.13374706 729.1011767 725.11805449 C733.04718149 725.10962733 736.99274945 725.10911424 740.93871409 725.13066594 C744.5310334 725.15012863 748.12256717 725.14642529 751.71486556 725.12451246 C753.61043712 725.11884639 755.5060341 725.1376468 757.40150973 725.15754074 C766.94762273 725.06128398 775.20337388 722.39247039 782.09527302 715.50057125 C787.49076554 708.16459457 789.39894763 701.61742759 789.34136868 692.59439945 C789.34367616 691.7041335 789.34598365 690.81386755 789.34836107 689.89662384 C789.35366537 686.90565475 789.34467531 683.91489972 789.33578205 680.92394161 C789.33665682 678.76671962 789.33841052 676.60949783 789.34097004 674.45227718 C789.34546475 668.50525176 789.33741714 662.55829809 789.32741848 656.61128178 C789.31959888 650.77633162 789.32125756 644.9413888 789.32263388 639.10643468 C789.32511815 627.23990968 789.31853072 615.37340681 789.30642414 603.50688839 C789.29008327 587.46172822 789.28621852 571.41659356 789.284482 555.37142086 C789.27397532 516.78946648 789.24605318 478.20751844 789.22027302 439.62557125 C789.17902302 353.45432125 789.13777302 267.28307125 789.09527302 178.50057125 C517.17527302 178.50057125 245.25527302 178.50057125 -34.90472698 178.50057125 Z " fill="#EEBF54" transform="translate(134.9047269821167,110.49942874908447)"/>
<path d="M0 0 C1.31619796 -0.00581376 2.63239592 -0.01162753 3.98847866 -0.01761746 C7.62880216 -0.03312872 11.26869875 -0.02390881 14.90901494 -0.01050565 C18.87433976 -0.00033047 22.83960069 -0.0134097 26.80491638 -0.02347898 C33.75036509 -0.03791042 40.69568939 -0.03749696 47.6411438 -0.02729034 C57.96929449 -0.012154 68.29734031 -0.01989868 78.62549031 -0.03212357 C97.07202592 -0.05318509 115.51850612 -0.05136155 133.965047 -0.03980792 C150.10788884 -0.02974678 166.25071036 -0.02711839 182.39355469 -0.0318985 C183.46423459 -0.03220404 184.53491449 -0.03250958 185.63803923 -0.03282438 C189.98424835 -0.03406973 194.33045746 -0.03534333 198.67666656 -0.03666343 C239.44969641 -0.04890018 280.22269097 -0.03780439 320.99571538 -0.01627585 C357.22226015 0.00270666 393.44874869 0.00100815 429.67529297 -0.01811981 C470.37362023 -0.03953708 511.0719163 -0.04803237 551.77024841 -0.03567076 C556.10855102 -0.03438788 560.44685363 -0.03313652 564.78515625 -0.0318985 C565.85336156 -0.03158219 566.92156688 -0.03126588 568.02214205 -0.03093999 C584.1550694 -0.02638957 600.28797421 -0.03171217 616.42089844 -0.04181671 C634.76425762 -0.05324841 653.1075527 -0.05040581 671.45090389 -0.02869374 C681.71778483 -0.01694233 691.98452699 -0.01619086 702.25140435 -0.03127843 C709.10867996 -0.04024438 715.96584425 -0.03467227 722.82310337 -0.01725936 C726.73052125 -0.00774118 730.63766331 -0.00449673 734.54507256 -0.01888329 C738.75651484 -0.0342311 742.96728197 -0.01860226 747.17871094 0 C748.38843284 -0.00936466 749.59815474 -0.01872933 750.84453487 -0.02837777 C761.87950512 0.06929614 770.6580254 2.63650573 778.71044922 10.34320831 C803.72942374 39.10722683 785.58935547 86.38095846 785.58935547 124.50336456 C513.66935547 124.50336456 241.74935547 124.50336456 -38.41064453 124.50336456 C-38.41064453 18.01183914 -38.41064453 18.01183914 -28.72314453 7.50336456 C-20.11411717 0.81312928 -10.56116226 -0.08175577 0 0 Z " fill="#1F1F1E" transform="translate(138.41064453125,137.49663543701172)"/>
<path d="M0 0 C0.68416992 0.32758301 1.36833984 0.65516602 2.07324219 0.99267578 C11.10743632 5.39142096 19.2021763 10.63545238 27 17 C27.57137695 17.4645459 28.14275391 17.9290918 28.73144531 18.40771484 C60.96167482 44.77869409 81.10484812 82.55960794 85.58984375 124.01171875 C89.46526881 166.59599541 75.65047403 207.62973161 48.63476562 240.39648438 C42.61538129 247.53720293 36.18037924 254.02962305 29 260 C28.47696289 260.43876465 27.95392578 260.8775293 27.41503906 261.32958984 C-4.43585889 287.54680044 -46.07081311 298.19542939 -86.71557617 294.53735352 C-127.19901017 290.06294541 -164.52923083 266.95215712 -190.3125 235.9375 C-191.88571567 233.96684037 -193.44710877 231.98671482 -195 230 C-195.70914551 229.09749512 -195.70914551 229.09749512 -196.43261719 228.17675781 C-203.09592022 219.67412768 -209.51359185 211.00803301 -215.75 202.1875 C-216.3586792 201.33357666 -216.9673584 200.47965332 -217.59448242 199.59985352 C-218.15627197 198.79733154 -218.71806152 197.99480957 -219.296875 197.16796875 C-219.79541992 196.45922607 -220.29396484 195.7504834 -220.80761719 195.02026367 C-222.07150635 192.87884622 -222.81215442 191.48538728 -223 189 C-221.90917969 186.71948242 -221.90917969 186.71948242 -220.171875 184.16796875 C-219.52283203 183.19907715 -218.87378906 182.23018555 -218.20507812 181.23193359 C-217.11356445 179.63212646 -217.11356445 179.63212646 -216 178 C-215.22611491 176.82922006 -214.45469686 175.65680628 -213.68554688 174.48291016 C-211.64920677 171.37797348 -209.58982033 168.2893346 -207.51904297 165.20727539 C-206.66168647 163.92717847 -205.8085964 162.64421528 -204.95947266 161.35864258 C-203.71706444 159.47849001 -202.46173204 157.60761593 -201.203125 155.73828125 C-200.82496643 155.16032303 -200.44680786 154.58236481 -200.05718994 153.9868927 C-198.97363281 152.39575195 -198.97363281 152.39575195 -197 150 C-196.01 150 -195.02 150 -194 150 C-192.23661361 152.25492267 -190.67706975 154.47951094 -189.125 156.875 C-188.14255389 158.34634188 -187.15809833 159.81634353 -186.171875 161.28515625 C-185.65560547 162.05746582 -185.13933594 162.82977539 -184.60742188 163.62548828 C-177.26363248 174.47386247 -169.4918661 185.02313865 -161 195 C-160.05561493 196.1298953 -159.11162845 197.26012383 -158.16796875 198.390625 C-137.87156726 222.56915779 -115.06189902 240.52991998 -83 245 C-52.62036546 247.33355626 -23.42869617 240.05735373 0 220 C0.82113281 219.31164062 1.64226563 218.62328125 2.48828125 217.9140625 C21.91845063 201.10799793 34.67035009 176.31202764 36.87109375 150.60546875 C38.47420259 118.20323849 29.05821896 90.32705455 7.375 66.0625 C-7.24984865 50.75742584 -25.69861612 41.28949559 -46 36 C-46.93328125 35.75378906 -47.8665625 35.50757813 -48.828125 35.25390625 C-75.88877978 29.51736394 -105.77150478 35.29800627 -129 50 C-143.85796485 59.95818522 -156.09233867 73.07547386 -166.75 87.33984375 C-168.72862026 89.96769879 -170.78025187 92.53850238 -172.8125 95.125 C-191.39004225 119.20562392 -207.86973675 145.15149069 -224.07421875 170.8671875 C-231.12990652 182.06012312 -238.34057997 193.14266675 -245.6590271 204.1652832 C-246.70375253 205.73943531 -247.74695418 207.31459998 -248.78848267 208.89086914 C-256.82426901 221.04323546 -264.97697961 233.17228474 -275.0625 243.75 C-275.56869873 244.2867334 -276.07489746 244.8234668 -276.59643555 245.37646484 C-277.60227431 246.43907585 -278.6110078 247.4989566 -279.62304688 248.55566406 C-280.84121145 249.83344095 -282.03937068 251.13022477 -283.234375 252.4296875 C-307.12602745 277.66861358 -344.44419215 293.64355241 -378.93066406 295.12597656 C-415.6860074 296.0510075 -450.14090861 287.14518521 -480 265 C-480.91265625 264.3296875 -481.8253125 263.659375 -482.765625 262.96875 C-497.52582214 251.47877618 -510.00859132 237.77508517 -520 222 C-520.37946777 221.41186523 -520.75893555 220.82373047 -521.14990234 220.21777344 C-529.28396576 207.46350319 -534.7441766 193.12941082 -538.875 178.625 C-539.06602295 177.96145508 -539.2570459 177.29791016 -539.45385742 176.61425781 C-542.64271138 164.69184871 -543.38121032 152.60319574 -543.3125 140.3125 C-543.31034485 139.61378784 -543.3081897 138.91507568 -543.30596924 138.19519043 C-543.1022037 96.86965406 -526.96663132 62.29523123 -500.375 31.29296875 C-499 30 -499 30 -497 30 C-496.67 29.01 -496.34 28.02 -496 27 C-493.56267745 24.4189028 -490.74557286 22.2444637 -488 20 C-486.58460938 18.83017578 -486.58460938 18.83017578 -485.140625 17.63671875 C-476.97629225 11.03836154 -468.31402635 5.81373408 -459 1 C-458.38398926 0.67902344 -457.76797852 0.35804688 -457.13330078 0.02734375 C-449.87088189 -3.70438023 -442.44657799 -6.70934639 -434.6875 -9.25 C-433.99035889 -9.48420654 -433.29321777 -9.71841309 -432.57495117 -9.9597168 C-418.97164353 -14.19263267 -404.94653861 -15.50710068 -390.76782227 -15.39111328 C-388.43381606 -15.37497453 -386.10153406 -15.39111551 -383.76757812 -15.41015625 C-369.64296788 -15.43079395 -356.13570386 -13.27568152 -342.5625 -9.3125 C-341.25019409 -8.93013184 -341.25019409 -8.93013184 -339.91137695 -8.54003906 C-305.74574729 1.8013883 -277.26306328 24.86615541 -256.22802734 53.35302734 C-254.97504535 55.03346801 -253.69102491 56.68497729 -252.39453125 58.33203125 C-248.2224767 63.63807699 -244.17680869 69.02768287 -240.3125 74.5625 C-239.31669922 75.98755859 -239.31669922 75.98755859 -238.30078125 77.44140625 C-237 80 -237 80 -237.21582031 81.84033203 C-238.20758778 84.57170656 -239.61713303 86.7052998 -241.24609375 89.11328125 C-242.24842041 90.60504883 -242.24842041 90.60504883 -243.27099609 92.12695312 C-243.98594238 93.17818359 -244.70088867 94.22941406 -245.4375 95.3125 C-246.89735904 97.47510947 -248.35699451 99.63786989 -249.81640625 101.80078125 C-250.88785889 103.38366943 -250.88785889 103.38366943 -251.98095703 104.99853516 C-253.74765173 107.62486461 -255.48995641 110.26408171 -257.21484375 112.91796875 C-257.6725415 113.61946045 -258.13023926 114.32095215 -258.60180664 115.04370117 C-259.43281607 116.32057146 -260.2590573 117.60056133 -261.07983398 118.8840332 C-262.0018294 120.29107393 -262.99343939 121.65215918 -264 123 C-264.66 123 -265.32 123 -266 123 C-267.5234375 120.97265625 -267.5234375 120.97265625 -269.375 118.0625 C-280.95030716 100.29136839 -293.38025575 83.38564765 -308 68 C-308.64066406 67.29488281 -309.28132812 66.58976562 -309.94140625 65.86328125 C-324.24683852 50.63093112 -343.72587136 40.51923311 -364 36 C-364.94359375 35.77699219 -365.8871875 35.55398438 -366.859375 35.32421875 C-394.35463873 29.74161686 -423.25612354 36.36536634 -446.66015625 51.28125 C-471.61807776 67.92900267 -487.31150268 93.51023716 -493.3125 122.6875 C-497.24973374 150.93619648 -490.44050182 179.65207656 -473.68164062 202.82275391 C-455.4520006 226.51734013 -429.48009335 240.85900841 -400 245 C-396.28600006 245.27789381 -392.59843622 245.3348745 -388.875 245.3125 C-387.87654053 245.30686035 -386.87808105 245.3012207 -385.84936523 245.29541016 C-357.83420932 244.84221391 -333.04018166 233.74979577 -313.35083008 213.69775391 C-298.371541 197.98425769 -287.21256931 178.67097015 -275.625 160.4375 C-255.80251527 129.26154065 -235.15180913 98.57146746 -213 69 C-212.43893555 68.25057129 -211.87787109 67.50114258 -211.29980469 66.72900391 C-201.45611295 53.62026874 -191.13782384 41.03915063 -180 29 C-179.19755859 28.11634766 -179.19755859 28.11634766 -178.37890625 27.21484375 C-133.1038465 -20.54413449 -57.55917247 -27.70051624 0 0 Z " fill="#EFBE53" transform="translate(741,411)"/>
<path d="M0 0 C1.23287095 -0.00352835 1.23287095 -0.00352835 2.49064839 -0.00712797 C5.2686009 -0.01383071 8.04650677 -0.01335936 10.82446671 -0.01294994 C12.82672073 -0.01624777 14.82897408 -0.01997316 16.83122659 -0.02409142 C22.35210011 -0.03412867 27.87296277 -0.03783098 33.39384413 -0.04048073 C39.34081581 -0.04437863 45.28777885 -0.05395726 51.23474503 -0.0626936 C64.92582619 -0.08153669 78.6169089 -0.0917158 92.30799947 -0.10015428 C99.07186755 -0.10435956 105.83573474 -0.10958169 112.59960206 -0.11483881 C135.74762288 -0.13272906 158.89564395 -0.14772588 182.04367065 -0.155159 C183.4970977 -0.15563376 184.95052474 -0.15610964 186.40395178 -0.15658666 C187.12472856 -0.15682303 187.84550534 -0.15705941 188.58812385 -0.15730295 C192.24000458 -0.15850416 195.8918853 -0.15971961 199.54376602 -0.16094494 C200.63086039 -0.16130516 200.63086039 -0.16130516 201.73991625 -0.16167267 C225.24284219 -0.16956741 248.74571769 -0.19300282 272.24862159 -0.22550088 C297.09033052 -0.25978752 321.93200993 -0.27950902 346.77374291 -0.28280324 C349.50002433 -0.28322079 352.22630573 -0.28370035 354.95258713 -0.28422642 C355.95953663 -0.28441121 355.95953663 -0.28441121 356.98682856 -0.28459973 C367.7964775 -0.28693314 378.60606792 -0.30260086 389.415696 -0.32306826 C400.27812223 -0.34330957 411.1404747 -0.34847778 422.00291607 -0.33929763 C427.88930069 -0.33474016 433.77549503 -0.33672316 439.66185379 -0.35605907 C445.04817374 -0.37360005 450.43416332 -0.37276696 455.82048634 -0.35716178 C457.77138712 -0.35477189 459.72231024 -0.35918024 461.67317674 -0.37099043 C464.32164534 -0.38603351 466.9689318 -0.37648974 469.61737061 -0.36076355 C470.37783585 -0.37098576 471.1383011 -0.38120796 471.92181075 -0.39173993 C477.8946944 -0.31413813 482.33758515 1.39141818 486.65411758 5.73968983 C489.05035263 9.92277255 489.5376919 13.21624099 488.74005508 17.98578358 C487.43582712 22.10834324 484.97318977 24.81742492 481.3984431 27.27829802 C477.95914334 28.53735742 474.57833955 28.41076945 470.96365929 28.39148998 C470.13691513 28.39499606 469.31017097 28.39850213 468.45837396 28.40211445 C465.66996894 28.41146664 462.88177102 28.40649532 460.09335709 28.40164661 C458.0812767 28.40538095 456.06919777 28.40998159 454.05712116 28.41537726 C448.51375768 28.42764942 442.97045437 28.42734184 437.42708039 28.42498851 C431.45423714 28.42458141 425.48141346 28.43560923 419.50857925 28.44510365 C407.80157211 28.46173746 396.09458005 28.46724014 384.38756289 28.4683284 C374.87492917 28.46924691 365.362302 28.47336056 355.84967041 28.47972965 C353.11309811 28.48152469 350.3765258 28.48330432 347.63995349 28.48507941 C346.61952247 28.48574255 346.61952247 28.48574255 345.57847667 28.48641909 C326.43925777 28.49873013 307.30004113 28.50661995 288.1608181 28.50573254 C287.43899767 28.50570138 286.71717724 28.50567022 285.97348346 28.50563812 C282.31485849 28.5054719 278.65623352 28.50527382 274.99760856 28.5050687 C274.27097054 28.50502881 273.54433253 28.50498892 272.79567518 28.50494782 C271.32623578 28.50486695 269.85679638 28.50478335 268.38735697 28.50469704 C245.52133639 28.50347132 222.6553751 28.51848749 199.78937149 28.54584217 C174.10967429 28.5765501 148.43001606 28.59377546 122.75029933 28.59191573 C120.01309832 28.59176646 117.27589731 28.59166905 114.53869629 28.59160709 C113.52771595 28.59157213 113.52771595 28.59157213 112.49631176 28.59153646 C101.64096269 28.59147487 90.78566502 28.60425712 79.93033124 28.62147162 C69.0243514 28.63840899 58.11845053 28.64007308 47.21246494 28.62725298 C41.30189806 28.62070335 35.39151784 28.62067797 29.48096848 28.63795948 C24.07376355 28.65360709 18.66689458 28.65091199 13.25969826 28.63339122 C11.30009942 28.63030293 9.34047602 28.6340219 7.38090612 28.64511137 C4.72311291 28.65915996 2.06650999 28.64870367 -0.59124184 28.63199902 C-1.74026449 28.64690356 -1.74026449 28.64690356 -2.91249973 28.6621092 C-8.97393812 28.58121563 -12.40752748 26.49169809 -16.75213242 22.44672108 C-18.6239038 18.80169259 -19.05306867 15.21083658 -18.93963242 11.13422108 C-17.32908137 6.392043 -15.06507627 3.91889568 -10.93963242 1.13422108 C-7.24848093 -0.09616275 -3.84356993 -0.00740737 0 0 Z " fill="#F6C75A" transform="translate(381.9396324157715,187.86577892303467)"/>
<path d="M0 0 C8.30396991 5.80568153 12.26584313 14.22780646 14.8984375 23.8359375 C17.01544676 38.9543774 16.27063264 54.93356292 7.0625 67.65625 C2.47100471 72.67157562 -2.95542267 76.03282223 -9.72265625 76.8359375 C-17.19355495 77.09783247 -23.09148375 74.73873261 -29.46484375 70.97265625 C-38.84078265 61.07583185 -41.28611647 48.90153235 -41.15234375 35.66015625 C-41.14098389 34.08137695 -41.14098389 34.08137695 -41.12939453 32.47070312 C-40.88861731 21.1313264 -38.63417638 12.11506348 -30.71484375 3.59765625 C-21.83372217 -4.8280232 -10.61088884 -6.03693993 0 0 Z " fill="#EEC256" transform="translate(631.71484375,513.40234375)"/>
<path d="M0 0 C1.05638672 -0.020625 2.11277344 -0.04125 3.20117188 -0.0625 C12.57131449 -0.10868678 21.106756 1.18137117 28.5625 7.25 C38.25372754 16.94122754 38.86807001 29.40556199 38.87719727 42.37133789 C38.73558526 53.01570038 37.41387564 62.65770328 29.625 70.59765625 C22.77496557 76.08546792 15.54590582 78.37274199 6.859375 78.3828125 C5.7971875 78.38410156 4.735 78.38539063 3.640625 78.38671875 C2.54234375 78.38285156 1.4440625 78.37898437 0.3125 78.375 C-0.80125 78.37886719 -1.915 78.38273438 -3.0625 78.38671875 C-4.11953125 78.38542969 -5.1765625 78.38414062 -6.265625 78.3828125 C-7.7182373 78.38112061 -7.7182373 78.38112061 -9.20019531 78.37939453 C-11.4375 78.25 -11.4375 78.25 -12.4375 77.25 C-12.53775695 74.88238425 -12.57368935 72.54392927 -12.56689453 70.17578125 C-12.56864685 69.43597015 -12.57039917 68.69615906 -12.57220459 67.93392944 C-12.5766231 65.47676277 -12.57368513 63.01966747 -12.5703125 60.5625 C-12.57098554 58.86238593 -12.57195557 57.16227195 -12.57321167 55.4621582 C-12.57468864 51.89435919 -12.57253411 48.32658517 -12.56787109 44.75878906 C-12.5621738 40.17511506 -12.56545281 35.59149961 -12.57144356 31.00782776 C-12.57504919 27.49580439 -12.57391057 23.98379502 -12.57131577 20.47177124 C-12.5706465 18.78119907 -12.57147489 17.09062564 -12.57379532 15.40005493 C-12.57632189 13.04140843 -12.57248121 10.68285805 -12.56689453 8.32421875 C-12.56891876 7.61872894 -12.57094299 6.91323914 -12.57302856 6.18637085 C-12.53589992 -2.2326822 -7.17388624 0.03389905 0 0 Z " fill="#EFC357" transform="translate(291.4375,510.75)"/>
<path d="M0 0 C31.25652174 0 31.25652174 0 37.2421875 4.796875 C44.30333768 13.24322689 44.74710022 21.20991326 44 32 C43.01090974 38.66901452 40.3131177 42.49013569 35.02734375 46.62890625 C28.61205156 50.96757207 23.09337387 50.32555218 15 51 C14.67 59.91 14.34 68.82 14 78 C9.38 78 4.76 78 0 78 C0 52.26 0 26.52 0 0 Z " fill="#EFC356" transform="translate(656,511)"/>
<path d="M0 0 C5.28 0 10.56 0 16 0 C18.03694819 5.86986065 19.73603855 11.6557754 21.04296875 17.7265625 C21.21629227 18.51847992 21.38961578 19.31039734 21.56819153 20.12631226 C21.92942664 21.78450397 22.28810155 23.44325536 22.64428711 25.10253906 C23.18808333 27.62770876 23.74495915 30.14976093 24.30273438 32.671875 C24.65444006 34.29409884 25.00537809 35.91648935 25.35546875 37.5390625 C25.52104782 38.28402985 25.68662689 39.02899719 25.85722351 39.79653931 C26.80954191 44.29724353 27.15915324 48.39929953 27 53 C27.66 53 28.32 53 29 53 C28.96084473 52.04569092 28.92168945 51.09138184 28.88134766 50.1081543 C28.88685486 45.35729856 29.88548286 40.89355544 30.8984375 36.26953125 C31.09345856 35.35668869 31.28847961 34.44384613 31.4894104 33.50334167 C31.9012572 31.58391877 32.31663474 29.6652504 32.73535156 27.74731445 C33.37481782 24.81333588 34.00069291 21.87669036 34.625 18.93945312 C35.02784139 17.07013896 35.43146049 15.20099219 35.8359375 13.33203125 C36.02247894 12.45593704 36.20902039 11.57984283 36.4012146 10.67720032 C36.58125031 9.8592247 36.76128601 9.04124908 36.94677734 8.19848633 C37.17994156 7.12429192 37.17994156 7.12429192 37.41781616 6.02839661 C38 4 38 4 40 0 C44.62 0 49.24 0 54 0 C55.24636827 3.7391048 54.59932295 5.37190575 53.60058594 9.16455078 C53.2698407 10.43662384 52.93909546 11.7086969 52.59832764 13.01931763 C52.22727136 14.41138559 51.85594699 15.80338211 51.484375 17.1953125 C51.10834548 18.62661143 50.7329685 20.05808194 50.35821533 21.48971558 C49.56958103 24.49548878 48.77547302 27.49974187 47.97705078 30.50292969 C46.95957574 34.3304198 45.95183417 38.16038091 44.94778061 41.99141121 C44.17137046 44.951999 43.39160093 47.91169319 42.61066437 50.87108994 C42.23855228 52.2813689 41.86701421 53.69179946 41.49608612 55.10239029 C35.98760852 76.01239148 35.98760852 76.01239148 34 78 C31.88115293 78.20429655 29.7527973 78.31393738 27.625 78.375 C26.46226562 78.42398438 25.29953125 78.47296875 24.1015625 78.5234375 C21 78 21 78 19.43070984 75.89466858 C17.84199802 72.68032416 16.91068522 69.63252219 16.00708008 66.16186523 C15.83107773 65.4945639 15.65507538 64.82726257 15.47373962 64.13973999 C14.89786045 61.94798197 14.33344769 59.75345737 13.76953125 57.55859375 C13.37080753 56.02818121 12.97152222 54.49791489 12.57170105 52.9677887 C11.73723601 49.76731092 10.90820011 46.56549253 10.08325195 43.36254883 C9.0260905 39.25900607 7.95758827 35.15852314 6.88528919 31.05891323 C6.06052412 27.90205483 5.24069367 24.74393196 4.42246056 21.58537483 C4.0302064 20.07278587 3.63667187 18.56052834 3.24183083 17.04861259 C2.69127642 14.93654068 2.1471257 12.82292151 1.60473633 10.70874023 C1.29401688 9.50692612 0.98329742 8.305112 0.66316223 7.06687927 C0 4 0 4 0 0 Z " fill="#EFC357" transform="translate(378,511)"/>
<path d="M0 0 C3.72838591 2.09167767 6.28722505 4.11517821 8.5625 7.8125 C8.975 8.4725 9.3875 9.1325 9.8125 9.8125 C10.72290138 12.24023701 10.70537008 14.24083863 10.5625 16.8125 C5.63265675 18.85243514 1.98289575 20.21902968 -3.4375 19.8125 C-4.4275 17.8325 -5.4175 15.8525 -6.4375 13.8125 C-9.0775 13.8125 -11.7175 13.8125 -14.4375 13.8125 C-15.91646861 16.77043723 -15.8730582 18.51470224 -15.4375 21.8125 C-12.71369719 26.57915492 -8.48345369 29.58852829 -4.0625 32.6875 C2.18659625 37.08659095 7.66032507 41.92889286 11.0625 48.875 C12.27185492 55.97996018 11.93729681 62.35012313 8.5625 68.8125 C4.126525 74.21077646 -1.7498074 77.12463206 -8.59375 78.12890625 C-15.40315567 78.50054635 -22.12832018 76.69182759 -27.33203125 72.1640625 C-30.11766543 69.05987648 -32.43832389 65.92022399 -33.4375 61.8125 C-33.14635602 60.46932314 -32.81837152 59.13303995 -32.4375 57.8125 C-23.33329158 55.18925351 -23.33329158 55.18925351 -19.4375 56.8125 C-18.839375 57.658125 -18.24125 58.50375 -17.625 59.375 C-15.75065697 61.93675048 -15.75065697 61.93675048 -13.515625 62.24609375 C-10.51740294 62.33910429 -8.07736423 62.17242363 -5.4375 60.6875 C-3.92597511 57.85339083 -3.9941698 55.9791443 -4.4375 52.8125 C-7.37987098 48.41329655 -10.93253441 45.87601509 -15.25 43 C-21.70371365 38.53615357 -27.23687855 34.11806371 -30.875 27 C-32.15283299 19.75894637 -32.48704642 13.04943871 -28.70703125 6.53125 C-21.73234169 -2.91140664 -10.38667987 -4.88604171 0 0 Z " fill="#EEC256" transform="translate(737.4375,512.1875)"/>
<path d="M0 0 C11.55 0 23.1 0 35 0 C36 1 36 1 36.1328125 3.6875 C36.13023437 4.780625 36.12765625 5.87375 36.125 7 C36.12886719 8.6396875 36.12886719 8.6396875 36.1328125 10.3125 C36 13 36 13 35 14 C33.51361008 14.15655027 32.02050873 14.25066943 30.52734375 14.31640625 C29.62822266 14.35830078 28.72910156 14.40019531 27.80273438 14.44335938 C26.38444336 14.50233398 26.38444336 14.50233398 24.9375 14.5625 C23.98810547 14.60568359 23.03871094 14.64886719 22.06054688 14.69335938 C19.70721824 14.79979132 17.35362901 14.90043154 15 15 C15 20.28 15 25.56 15 31 C20.94 31.33 26.88 31.66 33 32 C33.09765625 42.05859375 33.09765625 42.05859375 33 45 C30.88074396 47.11925604 26.3803907 46.41831017 23.4375 46.5625 C22.63119141 46.60568359 21.82488281 46.64886719 20.99414062 46.69335938 C18.99631195 46.79975262 16.9981793 46.90040888 15 47 C15 52.28 15 57.56 15 63 C17.25650391 63.09087891 17.25650391 63.09087891 19.55859375 63.18359375 C21.51823989 63.26798043 23.47787476 63.35262935 25.4375 63.4375 C26.43072266 63.47681641 27.42394531 63.51613281 28.44726562 63.55664062 C29.86362305 63.61948242 29.86362305 63.61948242 31.30859375 63.68359375 C32.18314209 63.72025146 33.05769043 63.75690918 33.95874023 63.79467773 C36 64 36 64 37 65 C37.09873816 66.99799572 37.12971799 68.99957158 37.125 71 C37.12886719 72.6396875 37.12886719 72.6396875 37.1328125 74.3125 C37 77 37 77 36 78 C24.12 78 12.24 78 0 78 C0 52.26 0 26.52 0 0 Z " fill="#EFBF54" transform="translate(338,511)"/>
<path d="M0 0 C4.56195262 2.28097631 6.56607524 5.90455452 8.2734375 10.5546875 C9.26157488 15.24037122 9.4020391 19.78362248 9.4375 24.5625 C9.4475708 25.4486499 9.4576416 26.3347998 9.46801758 27.24780273 C9.36073088 35.44800692 7.87146406 42.93913388 2 49 C-1.24318977 50.62159489 -4.49464423 50.55485147 -8 50 C-13.12680547 47.00130246 -14.65934652 44.1621684 -16.39575195 38.61499023 C-17.47956679 33.92458996 -17.47214787 29.2940059 -17.4375 24.5 C-17.45748047 23.51902344 -17.47746094 22.53804687 -17.49804688 21.52734375 C-17.49285244 13.72530523 -15.9774016 7.39092959 -10.75 1.4375 C-7.03200871 -0.50599545 -4.10812218 -0.78488513 0 0 Z " fill="#1E1D1C" transform="translate(623,525)"/>
<path d="M0 0 C5.4208879 0.3497347 9.21295994 1.67779994 13.1875 5.4375 C16.84549461 11.53415768 17.23959351 18.18093535 17.1875 25.125 C17.18186035 25.91221436 17.1762207 26.69942871 17.17041016 27.51049805 C17.03491767 34.01749139 16.8638616 40.75482852 12.4453125 45.921875 C7.4241393 50.3684861 3.21943481 50.45465919 -3.125 50.25 C-4.72551664 48.64948336 -4.25231472 46.96153878 -4.25439453 44.74609375 C-4.25754669 43.78840088 -4.26069885 42.83070801 -4.26394653 41.84399414 C-4.2619223 40.80235107 -4.25989807 39.76070801 -4.2578125 38.6875 C-4.25876923 37.62587646 -4.25972595 36.56425293 -4.26071167 35.47045898 C-4.26139364 33.22086528 -4.25953819 30.97126963 -4.25537109 28.72167969 C-4.2500231 25.26492929 -4.25531554 21.80830883 -4.26171875 18.3515625 C-4.26105797 16.17187471 -4.25977682 13.992187 -4.2578125 11.8125 C-4.25983673 10.77085693 -4.26186096 9.72921387 -4.26394653 8.65600586 C-4.26079437 7.69831299 -4.25764221 6.74062012 -4.25439453 5.75390625 C-4.25359894 4.90642822 -4.25280334 4.0589502 -4.25198364 3.18579102 C-4.03744875 -0.08466731 -3.34927603 0.26794208 0 0 Z " fill="#1E1E1D" transform="translate(298.125,524.75)"/>
<path d="M0 0 C1.33703345 -0.00283143 2.67406463 -0.00697708 4.01109046 -0.01230523 C7.67222601 -0.023113 11.33311831 -0.01535902 14.99424484 -0.00447119 C18.98206453 0.00406428 22.96985225 -0.00486232 26.95767021 -0.01153535 C33.94238357 -0.02082118 40.92702494 -0.01898055 47.91173744 -0.00980282 C58.29785062 0.0038068 68.68390859 0.00022845 79.07002579 -0.00676142 C97.61778542 -0.0186854 116.16551106 -0.01360524 134.71326881 -0.00148315 C150.93965203 0.0090498 167.16602367 0.01359275 183.39241028 0.01222134 C184.46841022 0.01213731 185.54441015 0.01205328 186.65301615 0.0119667 C191.02067601 0.01161446 195.38833587 0.01123045 199.75599572 0.01080112 C240.72549513 0.00683616 281.69497403 0.01955472 322.66446757 0.04032768 C359.08560745 0.05870759 395.50672769 0.06450734 431.9278717 0.05905628 C434.26757816 0.05870985 436.60728463 0.05836375 438.94699109 0.05801799 C440.10368465 0.057847 441.26037821 0.057676 442.45212309 0.05749982 C448.27442768 0.05664632 454.09673227 0.05582253 459.91903687 0.05503082 C461.06762277 0.05487374 462.21620868 0.05471666 463.39960022 0.05455482 C493.81528746 0.05056837 524.2309728 0.05603525 554.6466589 0.06454211 C557.91766442 0.06544917 561.18866993 0.06635483 564.45967545 0.06725735 C566.62965829 0.06785846 568.79964113 0.06846707 570.96962396 0.06908325 C586.11754704 0.07330998 601.26546641 0.07388068 616.41338988 0.07197776 C635.92501028 0.06953894 655.43661075 0.07357362 674.94822568 0.08918776 C685.27451813 0.09726013 695.60077739 0.09982326 705.92707184 0.09454541 C712.81373271 0.09158115 719.70036411 0.09582914 726.58701792 0.10609398 C730.51772603 0.11175142 734.44836618 0.1141787 738.37907493 0.1079274 C742.60179158 0.10129221 746.82433371 0.10993463 751.04704285 0.12025452 C752.28259389 0.11585803 753.51814494 0.11146155 754.79113692 0.10693184 C755.90882549 0.1121951 757.02651406 0.11745836 758.17807198 0.12288111 C759.14471846 0.12324037 760.11136494 0.12359963 761.10730374 0.12396977 C763.52015686 0.37473011 763.52015686 0.37473011 766.52015686 2.37473011 C765.84647166 2.37410619 765.17278646 2.37348227 764.47868655 2.37283944 C691.1423245 2.30506209 617.80595884 2.2422393 544.46957397 2.20535755 C543.37431679 2.20480532 542.27905961 2.2042531 541.15061282 2.20368413 C517.34843201 2.19171285 493.54625085 2.18063207 469.7440692 2.17046879 C458.07169405 2.16547939 446.39931899 2.16029318 434.72694397 2.15500355 C433.5653947 2.15448051 432.40384544 2.15395748 431.20709771 2.15341859 C393.54956471 2.13636944 355.89205569 2.1063214 318.23453723 2.06954123 C279.5405383 2.03181731 240.84655265 2.00718983 202.15253565 1.99907015 C196.68882635 1.99791751 191.22511709 1.99661496 185.76140785 1.99522114 C184.68605843 1.99495145 183.61070901 1.99468175 182.50277324 1.99440389 C165.18399485 1.98967475 147.86525749 1.97111638 130.54649584 1.94740197 C113.14051359 1.9238627 95.73457206 1.91485577 78.32857444 1.9207246 C67.98397623 1.92376974 57.63952693 1.91563073 47.29495557 1.89153994 C40.38550562 1.87654662 33.47615325 1.87607107 26.56669659 1.88740286 C22.62926899 1.89344471 18.69212311 1.89317182 14.75472566 1.87519738 C11.16903108 1.85895297 7.58383679 1.8613053 3.99814947 1.87817021 C2.10848159 1.88235184 0.21880085 1.86698122 -1.67080149 1.85069621 C-8.51589464 1.90467525 -13.93550521 2.83482828 -20.25536878 5.51703371 C-22.47984314 6.37473011 -22.47984314 6.37473011 -25.47984314 6.37473011 C-25.14984314 5.38473011 -24.81984314 4.39473011 -24.47984314 3.37473011 C-16.79567052 -0.16847634 -8.28181593 -0.04974817 0 0 Z " fill="#FDFD79" transform="translate(136.47984313964844,136.62526988983154)"/>
<path d="M0 0 C4.44786211 2.09804817 7.15693723 4.7478125 9.37109375 9.07421875 C10.51150201 12.56627634 10.08958456 15.54144773 9 19 C6.52201623 23.86419036 4.17484798 26.20870647 -1 28 C-5.3906711 28.71128872 -8.24078044 28.37960978 -12.25 26.375 C-15.7168509 23.3809015 -18.47238201 20.69192851 -19.3828125 16.046875 C-19.6746341 10.94972447 -18.39090366 7.9263095 -15 4 C-10.26667611 -0.18293739 -6.09973357 -1.06225163 0 0 Z " fill="#F5CA5D" transform="translate(174,188)"/>
<path d="M0 0 C6.83946634 5.69955528 6.83946634 5.69955528 7.66796875 10.08984375 C7.83252673 14.79933637 7.33758943 18.14859896 4.25 21.875 C-0.10619123 25.6999484 -2.6809983 27.24214002 -8.5859375 27.15625 C-13.235235 26.55200917 -16.54127276 24.20070084 -19.6875 20.75 C-21.28686742 16.42229994 -21.406874 12.42932641 -20.75 7.875 C-16.52744176 -0.72650752 -8.87060028 -3.62888193 0 0 Z " fill="#F6CB5D" transform="translate(242.75,189.125)"/>
<path d="M0 0 C4.38299083 2.19149542 7.20074724 4.40190962 9 9 C9.68426057 14.04325384 9.5739862 17.83076884 7.3125 22.4375 C3.66616794 26.47803012 1.0055627 28.15438768 -4.4375 28.4375 C-8.97263767 28.26423062 -11.54839344 27.05025696 -15 24 C-18.39090366 20.0736905 -19.6746341 17.05027553 -19.3828125 11.953125 C-18.4776004 7.33469594 -15.72574595 4.64135689 -12.3125 1.625 C-8.0324163 -0.4746637 -4.68276744 -0.83081358 0 0 Z " fill="#F7CC5E" transform="translate(307,188)"/>
<path d="M0 0 C3.44615237 0.07694758 4.71963617 0.35764924 7.8125 2.125 C10.77517181 7.09464304 10.56097891 11.73713701 9.75 17.375 C8.3125 20.5625 8.3125 20.5625 5.75 22.375 C2.0172175 23.29659284 -1.72266951 24.13866525 -5.25 22.375 C-5.27887814 18.89585059 -5.29675687 15.41673169 -5.3125 11.9375 C-5.32087891 10.94427734 -5.32925781 9.95105469 -5.33789062 8.92773438 C-5.34111328 7.98349609 -5.34433594 7.03925781 -5.34765625 6.06640625 C-5.35289307 5.19185791 -5.35812988 4.31730957 -5.36352539 3.41625977 C-5.15847184 -0.2707353 -3.27364624 0.14091855 0 0 Z " fill="#1E1E1C" transform="translate(675.25,524.625)"/>
<path d="M0 0 C11.55 0 23.1 0 35 0 C36 1 36 1 36.1328125 3.6875 C36.13023437 4.780625 36.12765625 5.87375 36.125 7 C36.12886719 8.6396875 36.12886719 8.6396875 36.1328125 10.3125 C36 13 36 13 35 14 C33.51361008 14.15655027 32.02050873 14.25066943 30.52734375 14.31640625 C29.62822266 14.35830078 28.72910156 14.40019531 27.80273438 14.44335938 C26.38444336 14.50233398 26.38444336 14.50233398 24.9375 14.5625 C23.98810547 14.60568359 23.03871094 14.64886719 22.06054688 14.69335938 C19.70721824 14.79979132 17.35362901 14.90043154 15 15 C14.67 20.61 14.34 26.22 14 32 C13.67 32 13.34 32 13 32 C12.91930342 29.04112541 12.85965335 26.0844341 12.8125 23.125 C12.78736328 22.28324219 12.76222656 21.44148437 12.73632812 20.57421875 C12.72666016 19.76855469 12.71699219 18.96289062 12.70703125 18.1328125 C12.6913208 17.38918457 12.67561035 16.64555664 12.65942383 15.87939453 C12.82800903 14.94909424 12.82800903 14.94909424 13 14 C16.10085571 11.93276286 16.72931681 11.75502577 20.23046875 11.8046875 C21.43413086 11.81435547 21.43413086 11.81435547 22.66210938 11.82421875 C23.49548828 11.84097656 24.32886719 11.85773437 25.1875 11.875 C26.4549707 11.88853516 26.4549707 11.88853516 27.74804688 11.90234375 C29.83215243 11.92589297 31.91611217 11.96176353 34 12 C34 8.37 34 4.74 34 1 C23.11 1 12.22 1 1 1 C1 26.08 1 51.16 1 77 C12.22 77 23.44 77 35 77 C35 73.04 35 69.08 35 65 C28.4 65 21.8 65 15 65 C15 64.67 15 64.34 15 64 C18.47914941 63.97112186 21.95826831 63.95324313 25.4375 63.9375 C26.92733398 63.92493164 26.92733398 63.92493164 28.44726562 63.91210938 C29.39150391 63.90888672 30.33574219 63.90566406 31.30859375 63.90234375 C32.18314209 63.89710693 33.05769043 63.89187012 33.95874023 63.88647461 C36 64 36 64 37 65 C37.09873816 66.99799572 37.12971799 68.99957158 37.125 71 C37.12886719 72.6396875 37.12886719 72.6396875 37.1328125 74.3125 C37 77 37 77 36 78 C24.12 78 12.24 78 0 78 C0 52.26 0 26.52 0 0 Z " fill="#FDF675" transform="translate(338,511)"/>
<path d="M0 0 C3.48221175 0.17411059 5.65214817 0.68551124 8.75 2.1875 C5.75 3.1875 5.75 3.1875 -2.25 2.1875 C-2.25 17.6975 -2.25 33.2075 -2.25 49.1875 C-0.6 49.1875 1.05 49.1875 2.75 49.1875 C2.75 49.5175 2.75 49.8475 2.75 50.1875 C0.75045254 50.23004356 -1.25041636 50.22830783 -3.25 50.1875 C-4.85051664 48.58698336 -4.37731472 46.89903878 -4.37939453 44.68359375 C-4.38254669 43.72590088 -4.38569885 42.76820801 -4.38894653 41.78149414 C-4.3869223 40.73985107 -4.38489807 39.69820801 -4.3828125 38.625 C-4.38376923 37.56337646 -4.38472595 36.50175293 -4.38571167 35.40795898 C-4.38639364 33.15836528 -4.38453819 30.90876963 -4.38037109 28.65917969 C-4.3750231 25.20242929 -4.38031554 21.74580883 -4.38671875 18.2890625 C-4.38605797 16.10937471 -4.38477682 13.929687 -4.3828125 11.75 C-4.38483673 10.70835693 -4.38686096 9.66671387 -4.38894653 8.59350586 C-4.38579437 7.63581299 -4.38264221 6.67812012 -4.37939453 5.69140625 C-4.37859894 4.84392822 -4.37780334 3.9964502 -4.37698364 3.12329102 C-4.15818251 -0.21220364 -3.43190372 0.19799445 0 0 Z " fill="#050510" transform="translate(298.25,524.8125)"/>
<path d="M0 0 C0.66 0.33 1.32 0.66 2 1 C-4.33224585 4.31689068 -8.75813124 6 -16 6 C-16 13.92 -16 21.84 -16 30 C-16.99 30 -17.98 30 -19 30 C-19.02886537 25.68751391 -19.04675255 21.37505238 -19.0625 17.0625 C-19.07087891 15.83080078 -19.07925781 14.59910156 -19.08789062 13.33007812 C-19.09111328 12.16025391 -19.09433594 10.99042969 -19.09765625 9.78515625 C-19.10289307 8.70113525 -19.10812988 7.61711426 -19.11352539 6.50024414 C-19 4 -19 4 -18 3 C-16.10762741 2.81458869 -14.21048989 2.67689299 -12.3125 2.5625 C-7.87582834 2.24069623 -4.19018255 1.54375147 0 0 Z " fill="#2A261E" transform="translate(689,558)"/>
<path d="M0 0 C0.33 0 0.66 0 1 0 C1.02686553 1.97909398 1.04633375 3.95828971 1.0625 5.9375 C1.07410156 7.03964844 1.08570313 8.14179687 1.09765625 9.27734375 C1 12 1 12 0 13 C-1.48638992 13.15655027 -2.97949127 13.25066943 -4.47265625 13.31640625 C-5.37177734 13.35830078 -6.27089844 13.40019531 -7.19726562 13.44335938 C-8.61555664 13.50233398 -8.61555664 13.50233398 -10.0625 13.5625 C-11.01189453 13.60568359 -11.96128906 13.64886719 -12.93945312 13.69335938 C-15.29278176 13.79979132 -17.64637099 13.90043154 -20 14 C-20.33 19.61 -20.66 25.22 -21 31 C-21.33 31 -21.66 31 -22 31 C-22.08069658 28.04112541 -22.14034665 25.0844341 -22.1875 22.125 C-22.21263672 21.28324219 -22.23777344 20.44148437 -22.26367188 19.57421875 C-22.27333984 18.76855469 -22.28300781 17.96289062 -22.29296875 17.1328125 C-22.3086792 16.38918457 -22.32438965 15.64555664 -22.34057617 14.87939453 C-22.17199097 13.94909424 -22.17199097 13.94909424 -22 13 C-18.89914429 10.93276286 -18.27068319 10.75502577 -14.76953125 10.8046875 C-13.56586914 10.81435547 -13.56586914 10.81435547 -12.33789062 10.82421875 C-11.50451172 10.84097656 -10.67113281 10.85773437 -9.8125 10.875 C-8.5450293 10.88853516 -8.5450293 10.88853516 -7.25195312 10.90234375 C-5.16784757 10.92589297 -3.08388783 10.96176353 -1 11 C-1.01160156 10.28972656 -1.02320313 9.57945312 -1.03515625 8.84765625 C-1.04417969 7.92855469 -1.05320312 7.00945313 -1.0625 6.0625 C-1.07410156 5.14597656 -1.08570313 4.22945312 -1.09765625 3.28515625 C-1 1 -1 1 0 0 Z " fill="#F1DD67" transform="translate(373,512)"/>
<path d="M0 0 C1.4540625 0.0309375 1.4540625 0.0309375 2.9375 0.0625 C2.9375 0.7225 2.9375 1.3825 2.9375 2.0625 C1.2875 2.0625 -0.3625 2.0625 -2.0625 2.0625 C-2.0625 8.3325 -2.0625 14.6025 -2.0625 21.0625 C0.5775 21.0625 3.2175 21.0625 5.9375 21.0625 C3.9375 23.0625 3.9375 23.0625 0.9375 23.25 C-2.0625 23.0625 -2.0625 23.0625 -4.0625 22.0625 C-4.09137814 18.58335059 -4.10925687 15.10423169 -4.125 11.625 C-4.13337891 10.63177734 -4.14175781 9.63855469 -4.15039062 8.61523438 C-4.15361328 7.67099609 -4.15683594 6.72675781 -4.16015625 5.75390625 C-4.16539307 4.87935791 -4.17062988 4.00480957 -4.17602539 3.10375977 C-3.98994855 -0.24202186 -3.41933476 0.06978234 0 0 Z " fill="#1A1716" transform="translate(674.0625,524.9375)"/>
<path d="M0 0 C0.33 0.66 0.66 1.32 1 2 C0.56429687 2.49628906 0.12859375 2.99257812 -0.3203125 3.50390625 C-0.91585937 4.18324219 -1.51140625 4.86257812 -2.125 5.5625 C-2.764375 6.29082031 -3.40375 7.01914063 -4.0625 7.76953125 C-5.77649969 9.74270428 -7.45232242 11.74191571 -9.125 13.75 C-11.50156938 16.54183016 -14.0362292 18.82075677 -17 21 C-14.17939567 11.97406615 -7.02902693 5.8731425 0 0 Z " fill="#F5D968" transform="translate(97,121)"/>
<path d="M0 0 C-0.99 0.33 -1.98 0.66 -3 1 C-3 1.66 -3 2.32 -3 3 C-16.2 3 -29.4 3 -43 3 C-43 2.67 -43 2.34 -43 2 C-42.23445801 1.97494385 -41.46891602 1.9498877 -40.68017578 1.92407227 C-37.16166069 1.80696546 -33.64333945 1.68476595 -30.125 1.5625 C-28.92101562 1.52318359 -27.71703125 1.48386719 -26.4765625 1.44335938 C-20.30196131 1.22523488 -14.184461 0.90927335 -8.04492188 0.20507812 C-5.35774392 -0.06440964 -2.69777196 -0.070994 0 0 Z " fill="#090806" transform="translate(381,704)"/>
<path d="M0 0 C3.48221175 0.17411059 5.65214817 0.68551124 8.75 2.1875 C5.75 3.1875 5.75 3.1875 -2.25 2.1875 C-2.25 9.1175 -2.25 16.0475 -2.25 23.1875 C-2.58 23.1875 -2.91 23.1875 -3.25 23.1875 C-4.72526882 7.85524194 -4.72526882 7.85524194 -4.25 1.1875 C-3.25 0.1875 -3.25 0.1875 0 0 Z " fill="#0E0D12" transform="translate(298.25,524.8125)"/>
<path d="M0 0 C10.56 0 21.12 0 32 0 C27.09396701 3.67952474 25.82490317 3.29124516 20 3 C20 2.34 20 1.68 20 1 C13.4 1 6.8 1 0 1 C0 0.67 0 0.34 0 0 Z " fill="#DDAF4D" transform="translate(656,703)"/>
<path d="M0 0 C2 2 2 2 2 5 C0.03125 6.82421875 0.03125 6.82421875 -2.5 8.6875 C-3.75296875 9.62142578 -3.75296875 9.62142578 -5.03125 10.57421875 C-5.6809375 11.04472656 -6.330625 11.51523437 -7 12 C-7 8.19654123 -5.86213669 7.22298985 -3.5 4.3125 C-2.8503125 3.50425781 -2.200625 2.69601562 -1.53125 1.86328125 C-1.0259375 1.24839844 -0.520625 0.63351562 0 0 Z " fill="#F3D562" transform="translate(538,467)"/>
<path d="M0 0 C1.4540625 0.0309375 1.4540625 0.0309375 2.9375 0.0625 C2.9375 0.7225 2.9375 1.3825 2.9375 2.0625 C1.2875 2.0625 -0.3625 2.0625 -2.0625 2.0625 C-2.0625 7.6725 -2.0625 13.2825 -2.0625 19.0625 C-2.3925 19.0625 -2.7225 19.0625 -3.0625 19.0625 C-3.2563211 16.08361874 -3.44285102 13.10459754 -3.625 10.125 C-3.68107422 9.27486328 -3.73714844 8.42472656 -3.79492188 7.54882812 C-3.86743164 6.33549805 -3.86743164 6.33549805 -3.94140625 5.09765625 C-3.9885376 4.3487915 -4.03566895 3.59992676 -4.08422852 2.82836914 C-4.04548128 -0.32060534 -3.14738917 0.06423243 0 0 Z " fill="#05050D" transform="translate(674.0625,524.9375)"/>
<path d="M0 0 C0.99 0.33 1.98 0.66 3 1 C3.04241723 3.33294775 3.04092937 5.66702567 3 8 C2.67 8.33 2.34 8.66 2 9 C1.76572222 11.01594582 1.58663876 13.038474 1.4375 15.0625 C1.35371094 16.16722656 1.26992188 17.27195312 1.18359375 18.41015625 C1.12300781 19.26480469 1.06242187 20.11945312 1 21 C0.67 21 0.34 21 0 21 C0 14.07 0 7.14 0 0 Z " fill="#2F2921" transform="translate(312,540)"/>
<path d="M0 0 C1 3 1 3 -0.21484375 5.91796875 C-0.78332031 6.99691406 -1.35179687 8.07585938 -1.9375 9.1875 C-2.50339844 10.27417969 -3.06929687 11.36085938 -3.65234375 12.48046875 C-4.09707031 13.31191406 -4.54179688 14.14335938 -5 15 C-5.33 15 -5.66 15 -6 15 C-6.25 9.375 -6.25 9.375 -4 6 C-3.34 6 -2.68 6 -2 6 C-1.34 4.02 -0.68 2.04 0 0 Z " fill="#F3DA64" transform="translate(814,608)"/>
<path d="M0 0 C0.99 0.66 1.98 1.32 3 2 C0.03 4.64 -2.94 7.28 -6 10 C-6 6.41087588 -5.33563446 5.89142971 -3 3.3125 C-2.443125 2.68988281 -1.88625 2.06726563 -1.3125 1.42578125 C-0.879375 0.95527344 -0.44625 0.48476563 0 0 Z " fill="#131312" transform="translate(795,644)"/>
<path d="M0 0 C0 0.66 0 1.32 0 2 C-1.76858691 2.67260351 -3.53996016 3.33788395 -5.3125 4 C-6.29863281 4.37125 -7.28476563 4.7425 -8.30078125 5.125 C-11 6 -11 6 -14 6 C-13.67 5.01 -13.34 4.02 -13 3 C-10.56640625 2.05078125 -10.56640625 2.05078125 -7.5625 1.3125 C-6.57378906 1.06113281 -5.58507812 0.80976563 -4.56640625 0.55078125 C-2 0 -2 0 0 0 Z " fill="#F7E470" transform="translate(125,137)"/>
<path d="M0 0 C0.33 1.32 0.66 2.64 1 4 C0.01 4.33 -0.98 4.66 -2 5 C-2.67441131 6.6635479 -3.3400321 8.33066942 -4 10 C-6.125 12.3125 -6.125 12.3125 -8 14 C-6.6744419 10.37723685 -5.05653045 7.36494652 -2.875 4.1875 C-2.33617187 3.39730469 -1.79734375 2.60710938 -1.2421875 1.79296875 C-0.83226562 1.20128906 -0.42234375 0.60960937 0 0 Z " fill="#F0DE69" transform="translate(468,568)"/>
<path d="M0 0 C2.35964273 0.40683495 3.85934088 0.89814339 5.8125 2.3125 C7 4 7 4 6.6875 6.1875 C6.460625 6.785625 6.23375 7.38375 6 8 C5.34 8 4.68 8 4 8 C0 2.58823529 0 2.58823529 0 0 Z " fill="#F6DE6C" transform="translate(471,526)"/>
<path d="M0 0 C0 3.3408643 -0.32717969 5.11058309 -2 8 C-5.125 8.8125 -5.125 8.8125 -8 9 C-7.04270084 7.87411986 -6.08412105 6.7493285 -5.125 5.625 C-4.59132813 4.99851562 -4.05765625 4.37203125 -3.5078125 3.7265625 C-2.38567993 2.44163349 -1.20628025 1.20628025 0 0 Z " fill="#EDD05B" transform="translate(919,822)"/>
<path d="M0 0 C3 2 3 2 3.8125 5 C3.874375 5.99 3.93625 6.98 4 8 C3.34 8.66 2.68 9.32 2 10 C-0.09350689 6.5980513 -0.17942163 3.94727588 0 0 Z " fill="#E2B851" transform="translate(98,809)"/>
<path d="M0 0 C0.99 0.33 1.98 0.66 3 1 C-0.5 5.875 -0.5 5.875 -5 7 C-3.35 4.69 -1.7 2.38 0 0 Z " fill="#141313" transform="translate(576,495)"/>
<path d="M0 0 C-2.39763185 2.39763185 -3.33273498 2.34280586 -6.625 2.625 C-7.44226563 2.69976563 -8.25953125 2.77453125 -9.1015625 2.8515625 C-9.72804688 2.90054688 -10.35453125 2.94953125 -11 3 C-11 2.34 -11 1.68 -11 1 C-7.32589215 -0.17571451 -3.83070817 -0.07366746 0 0 Z " fill="#E0AD4B" transform="translate(914,856)"/>
<path d="M0 0 C0.33 0.66 0.66 1.32 1 2 C0.00390625 3.9453125 0.00390625 3.9453125 -1.4375 6.125 C-1.91058594 6.84945312 -2.38367188 7.57390625 -2.87109375 8.3203125 C-3.24363281 8.87460937 -3.61617187 9.42890625 -4 10 C-4.66 8.68 -5.32 7.36 -6 6 C-5.38125 5.938125 -4.7625 5.87625 -4.125 5.8125 C-1.72238859 5.171081 -1.72238859 5.171081 -0.75 2.4375 C-0.5025 1.633125 -0.255 0.82875 0 0 Z " fill="#EDD561" transform="translate(807,623)"/>
<path d="M0 0 C1.65 0 3.3 0 5 0 C4.67 0.99 4.34 1.98 4 3 C3.34 3 2.68 3 2 3 C1.67 3.66 1.34 4.32 1 5 C0.34 4.67 -0.32 4.34 -1 4 C-0.67 2.68 -0.34 1.36 0 0 Z " fill="#E8C85C" transform="translate(705,570)"/>
<path d="M0 0 C0.66 0.99 1.32 1.98 2 3 C-0.31 4.65 -2.62 6.3 -5 8 C-3.62845496 5.04590299 -2.01136276 2.55991624 0 0 Z " fill="#F2D967" transform="translate(229,457)"/>
<path d="M0 0 C0.33 0.66 0.66 1.32 1 2 C-0.65 3.65 -2.3 5.3 -4 7 C-4 4 -4 4 -2 1.8125 C-1.34 1.214375 -0.68 0.61625 0 0 Z " fill="#F3D25F" transform="translate(534,578)"/>
<path d="M0 0 C0.33 0.66 0.66 1.32 1 2 C0.06694014 4.71435596 -0.62673377 5.78043163 -3.125 7.25 C-3.74375 7.4975 -4.3625 7.745 -5 8 C-3.8141763 4.62496331 -2.72426311 2.35277269 0 0 Z " fill="#111110" transform="translate(570,503)"/>
</svg>
