<?xml version="1.0" encoding="UTF-8"?>
<svg version="1.1" xmlns="http://www.w3.org/2000/svg" width="1024" height="1024">
<path d="M0 0 C0.87269531 0.75023437 1.74539063 1.50046875 2.64453125 2.2734375 C13.20559244 11.4873397 22.05098236 22.00642889 30.54345703 33.10205078 C32.04916374 35.06406284 33.56850594 37.01493337 35.08984375 38.96484375 C42.93450171 49.06621692 50.32728119 59.4470275 57.58056641 69.97973633 C59.0133032 72.0189343 60.49439274 74.01417036 62 76 C60.33402836 79.68830085 58.05424452 82.86508287 55.6875 86.125 C55.25526123 86.72538086 54.82302246 87.32576172 54.37768555 87.94433594 C52.92158694 89.96516988 51.46107803 91.98276369 50 94 C48.33438395 96.30308637 46.66918213 98.60647096 45.00439453 100.91015625 C43.88151523 102.46306753 42.75750152 104.0151592 41.63232422 105.56640625 C38.08388184 110.4660802 34.61968873 115.40735416 31.26953125 120.4453125 C30.85058594 120.95835937 30.43164062 121.47140625 30 122 C29.34 122 28.68 122 28 122 C26.31070763 119.74145611 24.73919379 117.47616707 23.1875 115.125 C22.19194316 113.64719695 21.19447296 112.17068148 20.1953125 110.6953125 C19.67227539 109.92219727 19.14923828 109.14908203 18.61035156 108.35253906 C10.56549689 96.59992845 1.9957042 85.19145964 -6.60644531 73.84326172 C-7.94014929 72.07916483 -9.2638335 70.30795443 -10.5859375 68.53515625 C-32.71779517 39.04623235 -62.86243074 16.7894219 -100.11328125 11.46484375 C-134.99588968 7.53953002 -170.54683872 14.91330441 -199 36 C-203.62027504 39.70703799 -207.84939962 43.78080622 -212 48 C-212.88300781 48.88429688 -213.76601562 49.76859375 -214.67578125 50.6796875 C-239.40067823 76.59660907 -248.86092009 110.84783165 -248.24609375 145.9921875 C-247.16837058 179.73939961 -231.94373584 210.53651101 -208 234 C-207.05898437 234.73734375 -206.11796875 235.4746875 -205.1484375 236.234375 C-204.08496094 237.10835937 -204.08496094 237.10835937 -203 238 C-203 238.66 -203 239.32 -203 240 C-202.43023437 240.26554687 -201.86046875 240.53109375 -201.2734375 240.8046875 C-198.87422821 242.06612743 -196.80987227 243.52176608 -194.625 245.125 C-166.70733977 264.7406155 -132.56022877 273.4601284 -98.63037109 267.87280273 C-73.03107378 263.02808701 -49.80041305 251.00914987 -31 233 C-30.27554687 232.33871094 -29.55109375 231.67742187 -28.8046875 230.99609375 C-17.93851043 220.73359319 -9.77768187 207.78090155 -1.28686523 195.57177734 C2.62769146 189.94355898 6.59855622 184.36117279 10.625 178.8125 C14.79151009 173.07013409 18.91962173 167.30390537 23 161.5 C27.6613109 154.87073374 32.38944496 148.29271373 37.14453125 141.73046875 C40.79995588 136.67917792 44.41357962 131.60047648 48 126.5 C52.66136749 119.87077288 57.38944431 113.29271463 62.14453125 106.73046875 C65.79995588 101.67917792 69.41357962 96.60047648 73 91.5 C77.66195233 84.86994115 82.38989441 78.29051631 87.14672852 71.72827148 C90.78536346 66.70163096 94.37341961 61.64218882 97.9375 56.5625 C132.24340355 7.78584646 172.19125461 -31.37407927 233.08105469 -42.36132812 C273.85704768 -49.27015963 317.69354361 -43.28388878 354 -23 C354.93054199 -22.48614746 354.93054199 -22.48614746 355.87988281 -21.96191406 C363.43783407 -17.74471089 370.55276581 -13.03534093 377.5 -7.875 C378.14646484 -7.39643555 378.79292969 -6.91787109 379.45898438 -6.42480469 C383.43381981 -3.40351786 386.97122077 -0.14039715 390.45507812 3.43359375 C392.21501346 5.21800353 394.07180858 6.83759979 396 8.4375 C400.08921275 11.98618463 403.58187312 15.80662785 407 20 C408.10794922 21.35158203 408.10794922 21.35158203 409.23828125 22.73046875 C435.65126286 55.9678571 450.2160013 94.64130226 450.25 137.1875 C450.25101212 138.32374313 450.25101212 138.32374313 450.25204468 139.48294067 C450.17952145 190.83683896 429.10411059 235.21699716 394 272 C393.09894531 272.98033203 393.09894531 272.98033203 392.1796875 273.98046875 C366.48657124 301.15836309 329.34698307 317.1658006 293 323 C292.35361572 323.1045752 291.70723145 323.20915039 291.04125977 323.31689453 C270.70906802 326.07254859 246.95883692 325.74167333 227 321 C226.17258301 320.80664062 225.34516602 320.61328125 224.49267578 320.4140625 C193.23838108 312.8471718 165.1685676 297.27027096 142 275 C141.04738281 274.09894531 140.09476563 273.19789063 139.11328125 272.26953125 C132.18909835 265.61320842 126.1548705 258.50629767 120.38427734 250.83740234 C119.00296618 249.00393712 117.6064435 247.18295495 116.20703125 245.36328125 C105.22876934 230.99890351 94.96863341 216.07878139 85 201 C86.31997698 198.21171237 87.79529493 195.75675769 89.6171875 193.26953125 C90.39557983 192.2007373 90.39557983 192.2007373 91.18969727 191.11035156 C91.74584717 190.35206055 92.30199707 189.59376953 92.875 188.8125 C94.04893094 187.19976723 95.22208895 185.58647158 96.39453125 183.97265625 C96.99217285 183.15039551 97.58981445 182.32813477 98.20556641 181.48095703 C101.01944403 177.59053194 103.79470244 173.67329008 106.5625 169.75 C107.05024902 169.06010986 107.53799805 168.37021973 108.04052734 167.65942383 C110.75336479 163.81048524 113.40628866 159.93023553 116 156 C119.30495772 157.10165257 119.68636646 157.58054127 121.56640625 160.32421875 C122.0464209 161.01563965 122.52643555 161.70706055 123.02099609 162.41943359 C123.52969238 163.16789551 124.03838867 163.91635742 124.5625 164.6875 C125.64940336 166.25674335 126.73664739 167.82575079 127.82421875 169.39453125 C128.36353027 170.17779785 128.9028418 170.96106445 129.45849609 171.76806641 C131.56914195 174.82405697 133.71460463 177.8540434 135.875 180.875 C136.27178955 181.42986084 136.6685791 181.98472168 137.07739258 182.55639648 C145.41868887 194.18440272 153.91614649 205.6923515 162.6875 217 C163.27563477 217.75958008 163.86376953 218.51916016 164.46972656 219.30175781 C165.01983398 220.00655273 165.56994141 220.71134766 166.13671875 221.4375 C166.85927856 222.36369141 166.85927856 222.36369141 167.59643555 223.30859375 C168.98129557 225.044732 168.98129557 225.044732 170.67895508 226.59765625 C172 228 172 228 172 230 C172.66 230 173.32 230 174 230 C175.348098 231.65474691 176.67882915 233.3236757 178 235 C204.43974939 259.55759774 238.51020272 270.04964742 274.09375 269.13623047 C306.90911171 267.59801039 336.37630468 252.23514654 359 229 C359.76751587 228.27079346 359.76751587 228.27079346 360.55053711 227.52685547 C364.95882416 223.28996372 368.51607497 218.8503384 371.875 213.75 C372.38748291 212.97277588 372.89996582 212.19555176 373.42797852 211.39477539 C393.12378289 180.77627832 399.21795791 145.59691909 392 110 C384.23826293 76.10141595 363.4666136 47.63930286 334.08886719 29.14233398 C320.01809366 20.60547267 304.30312123 14.48135556 288 12 C286.83984375 11.81824219 285.6796875 11.63648438 284.484375 11.44921875 C250.4128574 7.36290456 214.79187379 14.86783446 187.40234375 36.24707031 C176.29072031 45.18664207 167.02780226 54.9054648 158.37158203 66.21386719 C157.09005407 67.88272773 155.79606653 69.54080168 154.49609375 71.1953125 C148.80828629 78.48081868 143.44684179 85.96183202 138.14453125 93.53125 C134.93026756 98.11412236 131.65851594 102.65408601 128.375 107.1875 C120.91351077 117.49596287 113.51399988 127.84515878 106.1875 138.25 C101.46182493 144.96062605 96.67201182 151.62240697 91.85620117 158.26855469 C87.6964999 164.01659575 83.59680155 169.80469965 79.51733398 175.60986328 C75.91161185 180.73219835 72.2460278 185.80842736 68.5625 190.875 C64.02957915 197.11192435 59.63526317 203.42833666 55.3125 209.8125 C50.87514786 216.35964018 46.26691328 222.68726637 41.3828125 228.90625 C38.88668781 232.14712009 36.53306171 235.46263485 34.1875 238.8125 C14.9690948 266.04206598 -8.09901149 289.70931486 -38 305 C-38.68175293 305.35046387 -39.36350586 305.70092773 -40.06591797 306.06201172 C-81.98332578 327.33953513 -131.39653383 330.60201885 -176.14111328 316.31640625 C-202.64876984 307.51161111 -225.97952951 292.27939712 -246 273 C-246.58604004 272.44119141 -247.17208008 271.88238281 -247.77587891 271.30664062 C-283.65317037 236.97151984 -301.83383593 192.26380347 -304.1875 143.08203125 C-304.9056474 101.9232083 -292.50950015 60.52569544 -267 28 C-266.31292969 27.10410156 -265.62585938 26.20820313 -264.91796875 25.28515625 C-260.25518634 19.3164269 -255.42652223 13.29142209 -250 8 C-249.34 8 -248.68 8 -248 8 C-248 7.34 -248 6.68 -248 6 C-245.02674605 3.23529091 -241.79851356 0.78021669 -238.60742188 -1.72802734 C-237.08419448 -2.93337588 -235.58050847 -4.16329988 -234.078125 -5.39453125 C-166.01330223 -59.96982308 -65.18863962 -57.77502962 0 0 Z " fill="#F3BF43" transform="translate(439,369)"/>
<path d="M0 0 C5.44676192 1.94399233 9.15317793 4.63333711 13 9 C13.825 9.845625 14.65 10.69125 15.5 11.5625 C25.17376592 23.43346196 26.2592625 40.3753133 25 55 C23.1572064 67.73967813 18.86201816 78.56720685 9.8671875 87.89453125 C-0.1868529 95.27753912 -9.62222185 95.7942921 -21.625 95.875 C-23.20446997 95.90679052 -24.78390007 95.94063035 -26.36328125 95.9765625 C-34.26080074 96.12350634 -34.26080074 96.12350634 -38 96 C-39.89977088 94.10022912 -39.12012643 91.31060935 -39.12442017 88.78329468 C-39.11902725 87.44218124 -39.11902725 87.44218124 -39.11352539 86.07397461 C-39.11367142 85.13748581 -39.11381744 84.20099701 -39.1139679 83.23612976 C-39.11326837 80.12484461 -39.10547415 77.01361851 -39.09765625 73.90234375 C-39.09579221 71.75142957 -39.09436824 69.60051497 -39.09336853 67.44960022 C-39.08954225 61.77618242 -39.07971102 56.10279005 -39.06866455 50.42938232 C-39.0584528 44.64498234 -39.05387142 38.86057827 -39.04882812 33.07617188 C-39.03808885 21.71743672 -39.02101111 10.35872047 -39 -1 C-29.72759302 -5.63620349 -9.90371801 -2.67219221 0 0 Z M-20 15 C-20.0231271 23.19690561 -20.04091696 31.39379768 -20.05181217 39.59072781 C-20.0570402 43.39651577 -20.06413638 47.20228148 -20.07543945 51.00805664 C-20.0862712 54.67792544 -20.09227744 58.34777278 -20.09487724 62.01765633 C-20.09673097 63.42074992 -20.1003506 64.82384229 -20.10573006 66.2269268 C-20.11294419 68.1856968 -20.11340809 70.1444882 -20.11352539 72.10327148 C-20.115746 73.22023911 -20.11796661 74.33720673 -20.12025452 75.48802185 C-20.28510776 77.93905414 -20.28510776 77.93905414 -19 79 C-11.98212382 79.47578822 -8.06495124 78.33520095 -2.375 74 C5.99405923 63.42855676 5.86801758 48.74659739 4.7265625 35.9296875 C3.60603799 28.33971957 0.99775756 22.92281362 -4.5 17.5625 C-9.46512276 14.45929828 -14.33037264 14.97688225 -20 15 Z " fill="#F3C043" transform="translate(269,454)"/>
<path d="M0 0 C0.63164063 0.40992188 1.26328125 0.81984375 1.9140625 1.2421875 C2.83058594 1.82613281 2.83058594 1.82613281 3.765625 2.421875 C12.85241735 9.18693186 17.7274995 21.08715857 19.61669922 31.94433594 C21.93103017 49.82814786 20.50528335 69.09015384 9.9140625 84.2421875 C5.21422379 90.02493835 -0.59208728 94.82299817 -8.0859375 96.2421875 C-17.89274547 96.99560726 -26.11148964 96.57339014 -34.23046875 90.6875 C-42.38248084 83.42394812 -47.70478229 72.00707367 -49.0859375 61.2421875 C-49.19421875 60.51773438 -49.3025 59.79328125 -49.4140625 59.046875 C-51.80904989 40.95841763 -49.09933118 22.27300187 -37.9765625 7.40234375 C-28.62634874 -3.28085503 -12.86900233 -6.98878404 0 0 Z M-22.0859375 17.2421875 C-29.02290096 25.91339183 -29.47634088 35.21278337 -29.4609375 45.9296875 C-29.45932617 47.0849292 -29.45771484 48.2401709 -29.45605469 49.43041992 C-29.30410718 59.98704734 -28.35370078 69.05534909 -21.0859375 77.2421875 C-18.17375183 78.92818973 -16.45429331 79.24986158 -13.0859375 79.1796875 C-8.27884327 77.67747055 -6.02082194 74.73107753 -3.3984375 70.5546875 C-0.3645361 62.89769825 0.27800812 55.0394754 0.2265625 46.8671875 C0.22237305 45.95179199 0.21818359 45.03639648 0.21386719 44.09326172 C0.05371981 34.47249346 -1.21183389 25.13026949 -7.0859375 17.2421875 C-12.61761979 13.66964269 -16.77747039 13.09899366 -22.0859375 17.2421875 Z " fill="#F3C043" transform="translate(660.0859375,453.7578125)"/>
<path d="M0 0 C0.93658447 2.67019653 0.93658447 2.67019653 1.55566406 6.10205078 C1.79561096 7.38322784 2.03555786 8.66440491 2.28277588 9.98440552 C2.52743323 11.38797598 2.77170723 12.79161332 3.015625 14.1953125 C3.27742331 15.62762993 3.54076994 17.05966515 3.80560303 18.49142456 C4.49837874 22.26003544 5.17003423 26.03211654 5.83740234 29.80529785 C6.52214691 33.65506146 7.22674101 37.50118245 7.9296875 41.34765625 C9.30594175 48.89500763 10.65991031 56.44613403 12 64 C12.33 64 12.66 64 13 64 C13.1481163 63.21517242 13.2962326 62.43034485 13.44883728 61.62173462 C14.84357918 54.23428431 16.24117672 46.84738278 17.64200497 39.46108437 C18.36212403 35.66348139 19.08112753 31.8656742 19.79760742 28.06738281 C20.48877602 24.40349783 21.18284111 20.74017253 21.87893867 17.07722092 C22.14432089 15.67794813 22.40864953 14.27847511 22.67191887 12.87880325 C23.04014716 10.92209693 23.41243198 8.9661553 23.78491211 7.01025391 C24.10134926 5.33813339 24.10134926 5.33813339 24.42417908 3.63223267 C25 1 25 1 26 -1 C32.27 -1 38.54 -1 45 -1 C43.25088313 9.11640517 41.07959975 19.12941879 38.90234375 29.16015625 C38.50395149 31.00050615 38.10564255 32.8408741 37.70741272 34.68125916 C36.8773949 38.51490942 36.0459767 42.34825272 35.21362305 46.18139648 C34.14568282 51.10028842 33.08191061 56.02007145 32.01923275 60.94010258 C31.20014816 64.72963564 30.37857905 68.51862677 29.55627632 72.30746269 C29.16270415 74.12262191 28.76998421 75.93796614 28.37812614 77.75349617 C27.83270162 80.27902066 27.28386915 82.80378066 26.73413086 85.32836914 C26.57255493 86.08000839 26.410979 86.83164764 26.24450684 87.60606384 C25.1142032 92.77159361 25.1142032 92.77159361 24 95 C15.75 95 7.5 95 -1 95 C-2.72207476 86.76520383 -4.44387585 78.53035057 -6.16524696 70.2954073 C-6.96531351 66.4679828 -7.76548166 62.64057961 -8.56591797 58.81323242 C-12.7344998 38.88039225 -16.88408413 18.94378863 -21 -1 C-18.95970431 -1.15456786 -16.91939937 -1.30901558 -14.87902832 -1.46258545 C-13.30922158 -1.58233935 -11.73990563 -1.70856896 -10.17089844 -1.83837891 C-9.4905957 -1.88397949 -8.81029297 -1.92958008 -8.109375 -1.9765625 C-7.07248535 -2.05511475 -7.07248535 -2.05511475 -6.01464844 -2.13525391 C-3.4246441 -1.96137334 -2.14359106 -1.49290784 0 0 Z " fill="#F3C042" transform="translate(376,454)"/>
<path d="M0 0 C0.87753433 -0.00315216 1.75506866 -0.00630432 2.65919495 -0.009552 C4.08267494 -0.00651566 4.08267494 -0.00651566 5.53491211 -0.00341797 C6.50633652 -0.00437469 7.47776093 -0.00533142 8.47862244 -0.00631714 C10.53392603 -0.0069983 12.58923178 -0.00514846 14.64453125 -0.00097656 C17.80270175 0.00437833 20.9607304 -0.00092669 24.11889648 -0.00732422 C26.11173534 -0.00666354 28.10457411 -0.00538259 30.09741211 -0.00341797 C31.048423 -0.0054422 31.9994339 -0.00746643 32.97926331 -0.009552 C33.85364548 -0.00639984 34.72802765 -0.00324768 35.62890625 0 C36.4023085 0.00079559 37.17571075 0.00159119 37.97254944 0.00241089 C39.74975586 0.12939453 39.74975586 0.12939453 40.74975586 1.12939453 C40.8360746 2.47206866 40.85682059 3.81913775 40.84741211 5.16455078 C40.84491455 5.89295166 40.84241699 6.62135254 40.83984375 7.37182617 C40.83073975 8.30244873 40.82163574 9.23307129 40.81225586 10.19189453 C40.79163086 13.14126953 40.77100586 16.09064453 40.74975586 19.12939453 C31.50975586 19.12939453 22.26975586 19.12939453 12.74975586 19.12939453 C12.74975586 25.72939453 12.74975586 32.32939453 12.74975586 39.12939453 C18.02932411 38.80267439 18.02932411 38.80267439 23.30859375 38.47119141 C27.79337713 38.20052552 32.25506826 37.9891182 36.74975586 38.12939453 C37.74975586 39.12939453 37.74975586 39.12939453 37.84741211 42.94580078 C37.84166724 44.527865 37.82865179 46.10990484 37.81225586 47.69189453 C37.79163086 50.47626953 37.77100586 53.26064453 37.74975586 56.12939453 C29.49975586 56.12939453 21.24975586 56.12939453 12.74975586 56.12939453 C12.74975586 63.71939453 12.74975586 71.30939453 12.74975586 79.12939453 C21.98975586 79.12939453 31.22975586 79.12939453 40.74975586 79.12939453 C43.43303743 84.49595768 41.12402558 91.14107906 40.74975586 97.12939453 C25.23975586 97.12939453 9.72975586 97.12939453 -6.25024414 97.12939453 C-6.25024414 65.44939453 -6.25024414 33.76939453 -6.25024414 1.12939453 C-3.92806735 -0.03169386 -2.58462883 0.00265606 0 0 Z " fill="#F3C042" transform="translate(310.250244140625,451.87060546875)"/>
<path d="M0 0 C4.24986479 -0.08842548 8.49948746 -0.14086428 12.75 -0.1875 C14.53083984 -0.22520508 14.53083984 -0.22520508 16.34765625 -0.26367188 C27.37932404 -0.35409538 38.31891984 0.53337427 46.58203125 8.53125 C53.32752632 15.75270458 54.51846023 22.87634297 54.49438477 32.49291992 C54.20704902 40.87706474 51.2684428 47.2880027 46.9375 54.375 C39.21761155 61.27362372 30.32791961 64.38687647 20 64 C19.34 63.67 18.68 63.34 18 63 C18 74.55 18 86.1 18 98 C12.06 97.67 6.12 97.34 0 97 C-0.76906819 93.92372724 -1.11923258 92.02578957 -1.08229065 88.98834229 C-1.07525116 88.2003273 -1.06821167 87.41231232 -1.06095886 86.60041809 C-1.04801285 85.74518051 -1.03506683 84.88994293 -1.02172852 84.00878906 C-1.01212097 83.10112289 -1.00251343 82.19345673 -0.99261475 81.25828552 C-0.95965599 78.26065233 -0.91931164 75.2631663 -0.87890625 72.265625 C-0.85460209 70.18626422 -0.83075868 68.106898 -0.80735779 66.02752686 C-0.74454636 60.55631316 -0.6754713 55.08519572 -0.60510254 49.61407471 C-0.53439259 44.03052145 -0.46959154 38.44689999 -0.40429688 32.86328125 C-0.27532242 21.9087792 -0.13973238 10.95436973 0 0 Z M18 16 C18 26.56 18 37.12 18 48 C26.19629413 48.3090855 26.19629413 48.3090855 32 44 C35.13096223 38.76597634 35.8051871 32.97985623 35 27 C33.89600118 23.11722864 32.35549431 19.4159559 29 17 C25.25953198 15.53053042 22.24891539 16 18 16 Z " fill="#F3BF40" transform="translate(691,452)"/>
<path d="M0 0 C2.29296875 1.60546875 2.29296875 1.60546875 4.29296875 4.60546875 C1.98296875 8.89546875 -0.32703125 13.18546875 -2.70703125 17.60546875 C-7.70703125 15.60546875 -7.70703125 15.60546875 -10.14453125 14.48046875 C-14.07087032 13.1397676 -17.1772044 12.943922 -21.01953125 14.60546875 C-23.59323009 17.65577848 -23.96472569 20.74721033 -23.70703125 24.60546875 C-21.01581333 32.00631804 -14.761895 35.90917553 -8.70703125 40.60546875 C-1.89681814 45.92523118 3.66052461 51.80016398 5.29296875 60.60546875 C6.05148902 70.68503617 5.1671963 78.46871433 -1.33203125 86.41796875 C-7.92184979 93.20963759 -13.65716689 94.95926701 -23.08203125 95.10546875 C-31.96270626 95.02591715 -39.65093514 93.24065763 -46.70703125 87.60546875 C-46.10347717 83.75520996 -44.93930522 80.74445716 -43.14453125 77.29296875 C-42.46197266 75.96845703 -42.46197266 75.96845703 -41.765625 74.6171875 C-41.41628906 73.95332031 -41.06695313 73.28945313 -40.70703125 72.60546875 C-37.38076631 72.60546875 -35.57108213 73.39828256 -32.51953125 74.66796875 C-27.29221633 76.60657561 -24.07394611 77.23471076 -18.70703125 75.60546875 C-16.2895752 72.96137619 -15.79361654 71.1868271 -15.26953125 67.66796875 C-16.00332557 62.53140854 -18.88044032 59.07659016 -22.87890625 55.9296875 C-24.06710954 55.04470032 -25.25999488 54.1659712 -26.45703125 53.29296875 C-36.19076749 45.89260189 -42.62131538 39.26921158 -45.51953125 27.23046875 C-45.96619946 18.59488334 -43.53607061 10.45753389 -38.171875 3.66015625 C-27.93258875 -7.48877046 -12.72340205 -6.95408614 0 0 Z " fill="#F3C043" transform="translate(795.70703125,455.39453125)"/>
<path d="M0 0 C0.33 0.99 0.66 1.98 1 3 C-0.0480957 4.96118164 -0.0480957 4.96118164 -1.67578125 7.16015625 C-2.25650391 7.95357422 -2.83722656 8.74699219 -3.43554688 9.56445312 C-4.05494141 10.38880859 -4.67433594 11.21316406 -5.3125 12.0625 C-5.92029297 12.89072266 -6.52808594 13.71894531 -7.15429688 14.57226562 C-11.61051533 20.61051533 -11.61051533 20.61051533 -14 23 C-13.125 18.25 -13.125 18.25 -12 16 C-11.34 16 -10.68 16 -10 16 C-9.75507812 15.29488281 -9.51015625 14.58976563 -9.2578125 13.86328125 C-7.82532472 10.60236963 -6.00478131 8.03865885 -3.875 5.1875 C-3.15054688 4.21167969 -2.42609375 3.23585938 -1.6796875 2.23046875 C-0.84824219 1.12638672 -0.84824219 1.12638672 0 0 Z " fill="#FACB4C" transform="translate(533,520)"/>
<path d="M0 0 C6.27 0 12.54 0 19 0 C18.67 2.31 18.34 4.62 18 7 C16 4 16 4 16 2 C9.07 1.505 9.07 1.505 2 1 C2 1.66 2 2.32 2 3 C1.34 3 0.68 3 0 3 C-0.33 3.99 -0.66 4.98 -1 6 C-0.67 4.02 -0.34 2.04 0 0 Z " fill="#F9CB4A" transform="translate(402,453)"/>
<path d="M0 0 C4.99275057 1.27721526 7.57611908 3.17330957 11 7 C9.35 10.3 7.7 13.6 6 17 C5.67 17 5.34 17 5 17 C5 15.02 5 13.04 5 11 C5.66 11 6.32 11 7 11 C7.33 9.35 7.66 7.7 8 6 C7.34 6 6.68 6 6 6 C6 5.34 6 4.68 6 4 C4.02 3.34 2.04 2.68 0 2 C0 1.34 0 0.68 0 0 Z " fill="#F9C947" transform="translate(789,453)"/>
<path d="M0 0 C4.66666667 4.66666667 9.33333333 9.33333333 14 14 C13.34 14.66 12.68 15.32 12 16 C9 13 6 10 3 7 C2.40832031 6.49082031 1.81664062 5.98164062 1.20703125 5.45703125 C0 4 0 4 0 0 Z " fill="#F9CB50" transform="translate(220,592)"/>
<path d="M0 0 C4.875 4.75 4.875 4.75 6 7 C7.65 6.67 9.3 6.34 11 6 C10.1875 8.4375 10.1875 8.4375 9 11 C8.01 11.33 7.02 11.66 6 12 C3.69 8.37 1.38 4.74 -1 1 C-0.67 0.67 -0.34 0.34 0 0 Z " fill="#FACB4A" transform="translate(461,479)"/>
<path d="M0 0 C0 1.32 0 2.64 0 4 C-0.66 4 -1.32 4 -2 4 C-2.33 3.01 -2.66 2.02 -3 1 C-7.95 0.67 -12.9 0.34 -18 0 C-18 1.32 -18 2.64 -18 4 C-18.66 4 -19.32 4 -20 4 C-20.33 2.35 -20.66 0.7 -21 -1 C-18.25048307 -1.22212255 -15.50134388 -1.42815588 -12.75 -1.625 C-11.97269531 -1.68945312 -11.19539063 -1.75390625 -10.39453125 -1.8203125 C-3.27568856 -2.30707097 -3.27568856 -2.30707097 0 0 Z " fill="#FACA44" transform="translate(376,454)"/>
<path d="M0 0 C0.33 0.99 0.66 1.98 1 3 C-0.58203125 5.69921875 -0.58203125 5.69921875 -2.8125 8.6875 C-3.90498047 10.17830078 -3.90498047 10.17830078 -5.01953125 11.69921875 C-5.99986328 12.83810547 -5.99986328 12.83810547 -7 14 C-7.66 14 -8.32 14 -9 14 C-9 10 -9 10 -7 7.9375 C-6.34 7.298125 -5.68 6.65875 -5 6 C-5 5.01 -5 4.02 -5 3 C-3.35 2.67 -1.7 2.34 0 2 C0 1.34 0 0.68 0 0 Z " fill="#FACA4A" transform="translate(592,438)"/>
<path d="M0 0 C1.11375 1.175625 1.11375 1.175625 2.25 2.375 C4.54433318 4.56504531 6.12158858 5.82731386 9 7 C9 9.33333333 9 11.66666667 9 14 C5.41292671 10.61220856 2.50310461 7.26454859 0 3 C0 2.01 0 1.02 0 0 Z " fill="#F9C946" transform="translate(446,458)"/>
<path d="M0 0 C0.99 0.33 1.98 0.66 3 1 C-2.29539436 4.72561343 -7.59068096 8.44123747 -13 12 C-13 11.01 -13 10.02 -13 9 C-10.6640625 6.9921875 -10.6640625 6.9921875 -7.625 4.875 C-6.62726563 4.17117188 -5.62953125 3.46734375 -4.6015625 2.7421875 C-2 1 -2 1 0 0 Z " fill="#FACD56" transform="translate(245,399)"/>
<path d="M0 0 C0.66 0 1.32 0 2 0 C3.00484204 1.95585325 4.00373805 3.91476237 5 5.875 C5.556875 6.96554687 6.11375 8.05609375 6.6875 9.1796875 C8 12 8 12 8 14 C7.34 14 6.68 14 6 14 C5.34 12.35 4.68 10.7 4 9 C3.34 9 2.68 9 2 9 C1.34 6.03 0.68 3.06 0 0 Z " fill="#F8C749" transform="translate(199,560)"/>
<path d="M0 0 C1.92327974 2.76645673 2.00008513 3.9992551 1.609375 7.41796875 C1.32578125 8.66191406 1.0421875 9.90585937 0.75 11.1875 C0.47671875 12.43917969 0.2034375 13.69085938 -0.078125 14.98046875 C-0.38234375 15.97691406 -0.6865625 16.97335937 -1 18 C-1.66 18.33 -2.32 18.66 -3 19 C-2.68926976 16.77058595 -2.37634375 14.54147788 -2.0625 12.3125 C-1.88847656 11.07113281 -1.71445312 9.82976562 -1.53515625 8.55078125 C-1.10177103 5.67525452 -0.60350718 2.84355187 0 0 Z " fill="#FBCF50" transform="translate(394,492)"/>
<path d="M0 0 C0.66 0.66 1.32 1.32 2 2 C-1.3 5.3 -4.6 8.6 -8 12 C-8.33 11.01 -8.66 10.02 -9 9 C-7.625 7.5 -7.625 7.5 -6 6 C-5.34 6 -4.68 6 -4 6 C-3.71125 5.38125 -3.4225 4.7625 -3.125 4.125 C-2 2 -2 2 0 0 Z " fill="#FCD25E" transform="translate(836,634)"/>
<path d="M0 0 C0.66 0 1.32 0 2 0 C0.36041242 5.23272633 -1.38952035 10.15196636 -4 15 C-5.11346788 12.19966161 -5.03510273 11.09856297 -4.00390625 8.203125 C-3.52824219 7.22859375 -3.05257812 6.2540625 -2.5625 5.25 C-2.08941406 4.26515625 -1.61632812 3.2803125 -1.12890625 2.265625 C-0.75636719 1.51796875 -0.38382813 0.7703125 0 0 Z " fill="#FACE59" transform="translate(873,578)"/>
<path d="M0 0 C0.33 0.99 0.66 1.98 1 3 C-0.65234375 5.91796875 -0.65234375 5.91796875 -2.9375 9.1875 C-3.32357422 9.74630859 -3.70964844 10.30511719 -4.10742188 10.88085938 C-5.06242753 12.26031198 -6.03004093 13.63102056 -7 15 C-7.74609375 13.359375 -7.74609375 13.359375 -8 11 C-6.34765625 8.203125 -6.34765625 8.203125 -4.0625 5.25 C-3.31097656 4.26515625 -2.55945313 3.2803125 -1.78515625 2.265625 C-0.90150391 1.14414062 -0.90150391 1.14414062 0 0 Z " fill="#F9C94A" transform="translate(505,559)"/>
<path d="M0 0 C-2.69067269 1.79378179 -5.08578257 2.97313958 -8.0625 4.1875 C-8.94035156 4.55230469 -9.81820312 4.91710937 -10.72265625 5.29296875 C-13 6 -13 6 -15 5 C-13.50120034 2.00240068 -11.19691136 1.69211326 -8.14453125 0.59765625 C-5.3765057 -0.17376071 -2.8540358 -0.21405269 0 0 Z " fill="#FBD160" transform="translate(666,384)"/>
<path d="M0 0 C1.39195915 4.17587745 -0.17676781 6.13474776 -2 10 C-2.99 10 -3.98 10 -5 10 C-5.33 10.66 -5.66 11.32 -6 12 C-6.33 11.34 -6.66 10.68 -7 10 C-3.535 5.05 -3.535 5.05 0 0 Z " fill="#F9C949" transform="translate(456,539)"/>
<path d="M0 0 C4.41393071 2.20696535 6.64950384 4.66062248 9 9 C8.67 9.99 8.34 10.98 8 12 C6.66081194 10.37982158 5.3288031 8.75370657 4 7.125 C3.2575 6.22007812 2.515 5.31515625 1.75 4.3828125 C0 2 0 2 0 0 Z " fill="#FACE56" transform="translate(430,438)"/>
<path d="M0 0 C3.63 0 7.26 0 11 0 C10.67 0.66 10.34 1.32 10 2 C7.24921116 2.91692961 5.64051087 3.10886083 2.8125 3.0625 C0.9253125 3.0315625 0.9253125 3.0315625 -1 3 C-0.67 2.01 -0.34 1.02 0 0 Z " fill="#F8C74A" transform="translate(311,452)"/>
<path d="M0 0 C0.66 0.33 1.32 0.66 2 1 C-1.02299093 4.88670262 -3.45945591 7.84921596 -8 10 C-8.99 10 -9.98 10 -11 10 C-5.555 5.05 -5.555 5.05 0 0 Z " fill="#FBD061" transform="translate(587,366)"/>
<path d="M0 0 C0 2.62113708 -0.31292445 4.50935112 -1 7 C-2.98 7.33 -4.96 7.66 -7 8 C-6.02133662 6.85373678 -5.04205413 5.70800212 -4.0625 4.5625 C-3.51722656 3.92441406 -2.97195313 3.28632812 -2.41015625 2.62890625 C-1.63204305 1.73008851 -0.84063472 0.84063472 0 0 Z " fill="#F9CE5F" transform="translate(413,597)"/>
<path d="M0 0 C0.66 0 1.32 0 2 0 C3.5078125 2.1875 3.5078125 2.1875 5.125 5 C5.66382813 5.928125 6.20265625 6.85625 6.7578125 7.8125 C7.37269531 8.8953125 7.37269531 8.8953125 8 10 C7.01 10 6.02 10 5 10 C3.61328125 8.57421875 3.61328125 8.57421875 2.3125 6.6875 C1.87550781 6.07261719 1.43851563 5.45773437 0.98828125 4.82421875 C0 3 0 3 0 0 Z " fill="#FACA47" transform="translate(529,575)"/>
<path d="M0 0 C1 3 1 3 0.375 5.5625 C-1.33177722 8.58815053 -2.73058318 9.05358987 -6 10 C-4.34832443 6.4213696 -2.21713508 3.25179812 0 0 Z " fill="#F8C94A" transform="translate(533,431)"/>
<path d="M0 0 C1 3 1 3 0.109375 4.7890625 C-0.33921875 5.39492188 -0.7878125 6.00078125 -1.25 6.625 C-1.68828125 7.23601562 -2.1265625 7.84703125 -2.578125 8.4765625 C-4 10 -4 10 -7 11 C-5.5140084 6.40693504 -3.14985318 3.56430755 0 0 Z " fill="#F9CE55" transform="translate(175,393)"/>
<path d="M0 0 C0.33 1.32 0.66 2.64 1 4 C-0.21484375 5.921875 -0.21484375 5.921875 -1.9375 7.75 C-2.50339844 8.36359375 -3.06929687 8.9771875 -3.65234375 9.609375 C-4.31943359 10.29773438 -4.31943359 10.29773438 -5 11 C-5.66 10.67 -6.32 10.34 -7 10 C-3.535 5.05 -3.535 5.05 0 0 Z " fill="#FACA4A" transform="translate(812,581)"/>
<path d="M0 0 C0.66 0 1.32 0 2 0 C1.48041715 4.37934119 0.94324258 8.68803391 0 13 C-2 10 -2 10 -1.7578125 7.51953125 C-1.54898437 6.62621094 -1.34015625 5.73289062 -1.125 4.8125 C-0.92132813 3.91144531 -0.71765625 3.01039063 -0.5078125 2.08203125 C-0.34023438 1.39496094 -0.17265625 0.70789063 0 0 Z " fill="#F9CE53" transform="translate(401,534)"/>
<path d="M0 0 C1.4391134 0.28359887 2.87625518 0.57721399 4.3125 0.875 C5.11300781 1.03742187 5.91351562 1.19984375 6.73828125 1.3671875 C9 2 9 2 12 4 C8.69564916 5.12377697 6.9493138 4.89554742 3.75 3.5625 C3.04359375 3.27503906 2.3371875 2.98757813 1.609375 2.69140625 C1.07828125 2.46324219 0.5471875 2.23507812 0 2 C0 1.34 0 0.68 0 0 Z " fill="#FAD05B" transform="translate(659,631)"/>
<path d="M0 0 C0.99 0 1.98 0 3 0 C3 0.66 3 1.32 3 2 C4.32 2.33 5.64 2.66 7 3 C7 3.99 7 4.98 7 6 C6.01 6 5.02 6 4 6 C1.8125 3 1.8125 3 0 0 Z " fill="#F8CD58" transform="translate(177,624)"/>
<path d="M0 0 C0.66 0 1.32 0 2 0 C1.45276317 3.37462715 0.9451 5.08235 -1 8 C-1.66 8 -2.32 8 -3 8 C-3 6.35 -3 4.7 -3 3 C-2.01 2.67 -1.02 2.34 0 2 C0 1.34 0 0.68 0 0 Z " fill="#F7C749" transform="translate(797,532)"/>
<path d="M0 0 C0.66 0 1.32 0 2 0 C1.88490339 1.41750563 1.75746342 2.83401169 1.625 4.25 C1.55539062 5.03890625 1.48578125 5.8278125 1.4140625 6.640625 C0.98492887 9.085877 0.21399362 10.84836903 -1 13 C-1.02708567 11.39592672 -1.04643483 9.7917215 -1.0625 8.1875 C-1.07410156 7.29417969 -1.08570313 6.40085937 -1.09765625 5.48046875 C-1 3 -1 3 0 0 Z " fill="#FACD4C" transform="translate(408,501)"/>
<path d="M0 0 C0.66 0 1.32 0 2 0 C1.44687265 4.02992782 0.8441938 8.02022924 0 12 C-1.125 10.5 -1.125 10.5 -2 8 C-1.57598348 5.2226918 -0.81108065 2.70360217 0 0 Z " fill="#FACF59" transform="translate(193,470)"/>
<path d="M0 0 C0.33 0.99 0.66 1.98 1 3 C-0.21484375 5.04296875 -0.21484375 5.04296875 -1.9375 7.1875 C-2.50339844 7.90292969 -3.06929688 8.61835938 -3.65234375 9.35546875 C-4.09707031 9.89816406 -4.54179687 10.44085938 -5 11 C-5.33 10.01 -5.66 9.02 -6 8 C-4.78515625 5.95703125 -4.78515625 5.95703125 -3.0625 3.8125 C-2.49660156 3.09707031 -1.93070312 2.38164062 -1.34765625 1.64453125 C-0.90292969 1.10183594 -0.45820313 0.55914062 0 0 Z " fill="#FACB4A" transform="translate(481,470)"/>
<path d="M0 0 C2.3125 0.1875 2.3125 0.1875 5 1 C7.20970874 3.89548041 8 5.33157745 8 9 C5.06799526 6.14723863 2.35684596 3.34920216 0 0 Z " fill="#FBCC4F" transform="translate(799,418)"/>
<path d="M0 0 C3.45925163 1.2491742 6.14693203 2.67527795 9 5 C7.5199159 4.88637738 6.04089926 4.75877092 4.5625 4.625 C3.73878906 4.55539062 2.91507813 4.48578125 2.06640625 4.4140625 C1.38449219 4.27742188 0.70257812 4.14078125 0 4 C-0.33 3.34 -0.66 2.68 -1 2 C-0.67 1.34 -0.34 0.68 0 0 Z " fill="#F8CA55" transform="translate(786,343)"/>
<path d="M0 0 C-0.66 0 -1.32 0 -2 0 C-2 0.66 -2 1.32 -2 2 C-3.28745036 2.38922918 -4.58019597 2.76098036 -5.875 3.125 C-6.95394531 3.43824219 -6.95394531 3.43824219 -8.0546875 3.7578125 C-8.69664062 3.83773438 -9.33859375 3.91765625 -10 4 C-10.66 3.34 -11.32 2.68 -12 2 C-10.56656 1.46809459 -9.12804633 0.94984742 -7.6875 0.4375 C-6.48673828 0.00244141 -6.48673828 0.00244141 -5.26171875 -0.44140625 C-3 -1 -3 -1 0 0 Z " fill="#FBD060" transform="translate(656,332)"/>
<path d="M0 0 C0.33 0.99 0.66 1.98 1 3 C-0.40445835 5.2636564 -2.1967913 7.0208685 -4 9 C-5 6 -5 6 -4.25 3.9375 C-3 2 -3 2 0 0 Z " fill="#FACB4E" transform="translate(467,612)"/>
<path d="M0 0 C0.66 0 1.32 0 2 0 C0.34832443 3.5786304 -1.78286492 6.74820188 -4 10 C-4.8125 8.375 -4.8125 8.375 -5 6 C-2.6875 2.75 -2.6875 2.75 0 0 Z " fill="#FBCF59" transform="translate(855,611)"/>
<path d="M0 0 C1.00335818 3.12155879 0.80670923 4.87400172 0 8 C0.33 8.99 0.66 9.98 1 11 C-0.32 10.34 -1.64 9.68 -3 9 C-2.44271087 5.65626525 -1.64826111 2.96687001 0 0 Z " fill="#FACC46" transform="translate(752,534)"/>
<path d="M0 0 C3.7952131 1.49097658 5.61042731 3.75700849 8 7 C5 7 5 7 2.3125 4.625 C0 2 0 2 0 0 Z " fill="#FACA47" transform="translate(757,496)"/>
<path d="M0 0 C0 0.66 0 1.32 0 2 C-4.455 3.485 -4.455 3.485 -9 5 C-9 4.34 -9 3.68 -9 3 C-3.375 0 -3.375 0 0 0 Z " fill="#FAD160" transform="translate(780,676)"/>
<path d="M0 0 C0 3.90838866 -1.50567876 5.11594107 -4 8 C-5.32 7.67 -6.64 7.34 -8 7 C-5.36 4.69 -2.72 2.38 0 0 Z " fill="#F9CB51" transform="translate(405,605)"/>
<path d="M0 0 C2.96404505 2.80804268 5.44499019 5.18315774 7 9 C6.01 9.495 6.01 9.495 5 10 C4.15801693 8.90241493 3.32669329 7.79664683 2.5 6.6875 C2.0359375 6.07261719 1.571875 5.45773437 1.09375 4.82421875 C0 3 0 3 0 0 Z " fill="#F9CB4E" transform="translate(467,400)"/>
<path d="M0 0 C0.33 0.99 0.66 1.98 1 3 C-1.97 5.475 -1.97 5.475 -5 8 C-5 5 -5 5 -2.5 2.3125 C-1.675 1.549375 -0.85 0.78625 0 0 Z " fill="#F9CF5C" transform="translate(446,637)"/>
<path d="M0 0 C0.66 0.33 1.32 0.66 2 1 C2.125 6.75 2.125 6.75 1 9 C0.34 9 -0.32 9 -1 9 C-0.67 6.03 -0.34 3.06 0 0 Z " fill="#FBCF5D" transform="translate(833,527)"/>
<path d="M0 0 C0.6875 1.625 0.6875 1.625 1 4 C-0.4375 7.25 -0.4375 7.25 -2 10 C-2.33 10 -2.66 10 -3 10 C-3 8.02 -3 6.04 -3 4 C-2.34 4 -1.68 4 -1 4 C-0.67 2.68 -0.34 1.36 0 0 Z " fill="#F8C746" transform="translate(674,525)"/>
<path d="M0 0 C0.33 0 0.66 0 1 0 C1.22245393 1.60226955 1.42746669 3.20696767 1.625 4.8125 C1.74101562 5.70582031 1.85703125 6.59914063 1.9765625 7.51953125 C2 10 2 10 0 13 C-0.83796731 8.34462607 -1.0161692 4.62921525 0 0 Z " fill="#F9CA53" transform="translate(385,507)"/>
<path d="M0 0 C0.99 0 1.98 0 3 0 C3.625 2.8125 3.625 2.8125 4 6 C3.01 7.485 3.01 7.485 2 9 C1.34 6.03 0.68 3.06 0 0 Z " fill="#F8CC58" transform="translate(827,462)"/>
<path d="M0 0 C0.66 0.33 1.32 0.66 2 1 C-3.14285714 6.57142857 -3.14285714 6.57142857 -7 7 C-4.66666667 4.66666667 -2.33333333 2.33333333 0 0 Z " fill="#FBCB4F" transform="translate(630,454)"/>
<path d="M0 0 C0.66 0 1.32 0 2 0 C0.50902342 3.7952131 -1.75700849 5.61042731 -5 8 C-4.6875 6.0625 -4.6875 6.0625 -4 4 C-3.01 3.67 -2.02 3.34 -1 3 C-0.67 2.01 -0.34 1.02 0 0 Z " fill="#FBCF5C" transform="translate(225,415)"/>
<path d="M0 0 C1.8125 0.1875 1.8125 0.1875 4 1 C5.75 3.5625 5.75 3.5625 7 6 C6.01 6 5.02 6 4 6 C1.8125 3 1.8125 3 0 0 Z " fill="#F9CE5A" transform="translate(171,617)"/>
<path d="M0 0 C3 1 3 1 4.6875 4.0625 C5.120625 5.031875 5.55375 6.00125 6 7 C5.01 7 4.02 7 3 7 C0 2.77777778 0 2.77777778 0 0 Z " fill="#FBCC50" transform="translate(163,604)"/>
<path d="M0 0 C0.33 0.99 0.66 1.98 1 3 C0.00390625 4.82421875 0.00390625 4.82421875 -1.4375 6.6875 C-1.91058594 7.31011719 -2.38367188 7.93273437 -2.87109375 8.57421875 C-3.24363281 9.04472656 -3.61617188 9.51523437 -4 10 C-4.33 9.01 -4.66 8.02 -5 7 C-4.00390625 5.17578125 -4.00390625 5.17578125 -2.5625 3.3125 C-2.08941406 2.68988281 -1.61632812 2.06726563 -1.12890625 1.42578125 C-0.75636719 0.95527344 -0.38382812 0.48476563 0 0 Z " fill="#FACC4E" transform="translate(481,593)"/>
<path d="M0 0 C0.93065133 2.60582371 1.14917407 3.64198224 0.0625 6.25 C-0.4634375 7.11625 -0.4634375 7.11625 -1 8 C-1.99 7.67 -2.98 7.34 -4 7 C-2.79618552 4.50638429 -1.54571278 2.31856917 0 0 Z " fill="#F9CC4E" transform="translate(528,563)"/>
<path d="M0 0 C0.33 0.99 0.66 1.98 1 3 C-0.40445835 5.2636564 -2.1967913 7.0208685 -4 9 C-4.66 8.67 -5.32 8.34 -6 8 C-4.02 5.36 -2.04 2.72 0 0 Z " fill="#FBCB4B" transform="translate(544,541)"/>
<path d="M0 0 C1.2077558 3.62326739 0.54311128 4.64146369 -1 8 C-1.99 7.67 -2.98 7.34 -4 7 C-2.68 4.69 -1.36 2.38 0 0 Z " fill="#F9C849" transform="translate(470,519)"/>
<path d="M0 0 C1 3 1 3 -0.3125 5.6875 C-0.869375 6.450625 -1.42625 7.21375 -2 8 C-2.66 8 -3.32 8 -4 8 C-3.40072174 4.64404172 -2.15377564 2.62198774 0 0 Z " fill="#F9C847" transform="translate(501,476)"/>
<path d="M0 0 C0.625 1.875 0.625 1.875 1 4 C0.34 4.66 -0.32 5.32 -1 6 C-3.125 5.625 -3.125 5.625 -5 5 C-3.35 3.35 -1.7 1.7 0 0 Z " fill="#F8CD5A" transform="translate(199,368)"/>
<path d="M0 0 C2.5 2.3125 2.5 2.3125 5 5 C5 5.99 5 6.98 5 8 C2.5 5.6875 2.5 5.6875 0 3 C0 2.01 0 1.02 0 0 Z " fill="#F9C846" transform="translate(555,611)"/>
<path d="M0 0 C1.33855056 0.78281305 2.67073644 1.57651877 4 2.375 C5.11375 3.03628906 5.11375 3.03628906 6.25 3.7109375 C6.8275 4.13632812 7.405 4.56171875 8 5 C8 5.66 8 6.32 8 7 C4.66272214 5.82744291 2.22562513 4.81131596 0 2 C0 1.34 0 0.68 0 0 Z " fill="#FAC740" transform="translate(624,540)"/>
<path d="M0 0 C0.598125 0.20625 1.19625 0.4125 1.8125 0.625 C0.6678125 1.2746875 0.6678125 1.2746875 -0.5 1.9375 C-2.76843768 3.36186785 -4.4074723 4.65760097 -6.1875 6.625 C-5.875 4.25 -5.875 4.25 -5.1875 1.625 C-2.1875 -0.375 -2.1875 -0.375 0 0 Z " fill="#FACB50" transform="translate(641.1875,468.375)"/>
<path d="M0 0 C0.33 0 0.66 0 1 0 C1.33 2.97 1.66 5.94 2 9 C1.01 8.67 0.02 8.34 -1 8 C-0.67 5.36 -0.34 2.72 0 0 Z " fill="#F8CB55" transform="translate(377,465)"/>
<path d="" fill="#FFD569" transform="translate(0,0)"/>
<path d="" fill="#FACE57" transform="translate(0,0)"/>
<path d="" fill="#FCCB57" transform="translate(0,0)"/>
<path d="" fill="#F5C748" transform="translate(0,0)"/>
<path d="" fill="#F6CE5C" transform="translate(0,0)"/>
<path d="" fill="#FCD267" transform="translate(0,0)"/>
<path d="" fill="#F4D267" transform="translate(0,0)"/>
<path d="" fill="#FFD973" transform="translate(0,0)"/>
<path d="" fill="#FFFEFE" transform="translate(0,0)"/>
</svg>
