<?xml version="1.0" encoding="UTF-8"?>
<svg version="1.1" xmlns="http://www.w3.org/2000/svg" width="1024" height="1024">
<path d="M0 0 C1.50788589 0.75175255 1.50788589 0.75175255 3.04623413 1.51869202 C6.334464 3.16338785 9.60918342 4.83322755 12.88427734 6.50390625 C15.19596008 7.66688922 17.5084241 8.8283204 19.82162476 9.98828125 C24.66000064 12.41885219 29.49272237 14.86009763 34.3203125 17.31201172 C41.06076926 20.73546129 47.8122231 24.13672677 54.56643224 27.53294563 C90.78192385 45.74845191 90.78192385 45.74845191 107.6081028 54.65216827 C114.34676337 58.21373655 121.1425535 61.64682409 127.97021484 65.03515625 C129.19803938 65.64684846 130.42573766 66.25879417 131.65332031 66.87097168 C135.46612089 68.77179285 139.28052141 70.66938725 143.09521484 72.56640625 C148.13817435 75.07423294 153.18033799 77.58363919 158.22021484 80.09765625 C158.82596533 80.39978153 159.43171581 80.70190681 160.05582237 81.01318741 C169.86986375 85.91240581 179.60101198 90.95113919 189.28051758 96.11016846 C191.92990452 97.50623819 194.60772418 98.84523283 197.28271484 100.19140625 C207.85341032 106.0821963 213.52318645 114.99518499 217.16030884 126.40875244 C218.11711081 130.05416312 218.9766932 133.70937045 219.80224609 137.38671875 C220.12656542 138.7796608 220.45222345 140.17229171 220.77909851 141.56463623 C221.65621753 145.31782258 222.51454491 149.07507601 223.36935425 152.83339691 C224.28519667 156.8447696 225.2186468 160.85204645 226.14990234 164.85986328 C227.90439457 172.42291177 229.64316781 179.9894774 231.37517738 187.55770302 C232.66769204 193.20440663 233.96561173 198.84983431 235.26855469 204.49414062 C235.44447616 205.25624155 235.62039762 206.01834248 235.80165005 206.80353737 C236.1546519 208.3326075 236.50767122 209.86167361 236.86070824 211.39073563 C240.02652303 225.10517961 243.17206023 238.82418728 246.30826378 252.54542923 C248.95133643 264.10611886 251.61970403 275.66077508 254.30168152 287.21249771 C255.49297924 292.34643539 256.68097664 297.48113795 257.86899567 302.61583519 C258.81867024 306.71891869 259.77059485 310.82145284 260.7277832 314.92279053 C261.61839319 318.73890045 262.50319972 322.55631078 263.38375854 326.37475204 C263.70642838 327.76911994 264.0312381 329.16299478 264.35842896 330.55630875 C270.13448062 355.1689433 270.13448062 355.1689433 263.78271484 366.62890625 C259.85980867 372.80030743 255.12476204 378.35531368 250.46630859 383.9765625 C247.39580888 387.68191703 244.42053222 391.45262823 241.47021484 395.25390625 C237.51105077 400.33618159 233.41305969 405.27440482 229.22412109 410.16821289 C225.3852839 414.67351487 221.72221958 419.3020342 218.08398438 423.9699707 C213.84255519 429.40881017 209.48251575 434.74462609 205.09521484 440.06640625 C195.7506361 451.46053944 186.42405939 462.87063499 177.23974609 474.39453125 C174.43926771 477.88365185 171.60949662 481.34858727 168.78271484 484.81640625 C164.62272721 489.92021131 160.51548979 495.05878325 156.47021484 500.25390625 C152.51014402 505.33550807 148.41309632 510.27436202 144.22412109 515.16821289 C140.3852839 519.67351487 136.72221958 524.3020342 133.08398438 528.9699707 C129.54764699 533.50466184 125.94498128 537.97789978 122.27099609 542.40234375 C120.77521362 544.23380452 119.31585805 546.0954331 117.88818359 547.98046875 C111.47720549 556.311372 103.87502944 562.81639269 93.1230669 564.347188 C83.18626961 565.38826934 73.21861521 565.21450691 63.24047852 565.21166992 C61.13351889 565.21466585 59.02655981 565.21806937 56.91960144 565.22184753 C51.22114449 565.23064687 45.52270258 565.23302391 39.82423949 565.23366332 C36.25795509 565.23437604 32.69167447 565.23651456 29.12539101 565.23916054 C16.66668074 565.24839996 4.20798115 565.25249712 -8.25073242 565.25170898 C-19.83695825 565.25110832 -31.4231375 565.2616615 -43.00935155 565.27745265 C-52.98083711 565.29055545 -62.9523075 565.29589174 -72.9238016 565.29525357 C-78.86870539 565.29499943 -84.81356774 565.29780463 -90.75846291 565.30843163 C-96.35226552 565.31815902 -101.94598745 565.31816012 -107.53979301 565.31091499 C-109.58348331 565.30987496 -111.62717876 565.31219718 -113.67086029 565.31827545 C-148.60847027 565.41539238 -148.60847027 565.41539238 -161.21728516 553.828125 C-163.86186849 551.06722897 -166.20611978 548.10835237 -168.54931641 545.08984375 C-171.38324244 541.45226705 -174.29904958 537.88640239 -177.21728516 534.31640625 C-181.39572968 529.1903168 -185.52435305 524.03058346 -189.59228516 518.81640625 C-193.81872038 513.40095223 -198.16735389 508.10942783 -202.58447266 502.84765625 C-205.32040944 499.56821687 -207.98509774 496.2372099 -210.64306641 492.89453125 C-213.54304543 489.26830532 -216.47379813 485.66758339 -219.40478516 482.06640625 C-223.56600842 476.95112626 -227.7157648 471.82776686 -231.82666016 466.671875 C-233.43831639 464.65124585 -235.05313373 462.63331186 -236.67041016 460.6171875 C-241.12506979 455.06135977 -245.57379376 449.50264567 -249.95507812 443.88867188 C-255.17183457 437.20476276 -260.51836786 430.63820855 -265.92163086 424.10424805 C-269.58839408 419.66968209 -273.21566489 415.2084027 -276.79541016 410.703125 C-279.02365301 407.91782143 -281.27464902 405.15202799 -283.52880859 402.38769531 C-316.18725506 362.32490471 -316.18725506 362.32490471 -314.90478516 345.06640625 C-313.89392782 339.24489763 -312.54118902 333.51216052 -311.18994141 327.76171875 C-310.78654026 326.00877516 -310.38410244 324.25560966 -309.98254395 322.50224304 C-308.88638509 317.72863888 -307.77671455 312.9582668 -306.66460037 308.18835831 C-305.48875813 303.1347717 -304.32529557 298.07833576 -303.16040039 293.0222168 C-301.15517848 284.32647887 -299.14193741 275.63262894 -297.12353516 266.93994141 C-294.07263873 253.7998613 -291.03753577 240.65616199 -288.00483894 227.51187134 C-276.25288859 176.58426567 -276.25288859 176.58426567 -270.72284985 152.89744949 C-269.61605383 148.1492167 -268.52263241 143.39853769 -267.45690632 138.64091587 C-266.81114228 135.76392239 -266.15108774 132.89019416 -265.49462891 130.015625 C-265.1943856 128.62510674 -265.1943856 128.62510674 -264.88807678 127.20649719 C-262.74120761 117.93509909 -258.02925736 108.38659741 -250.06602478 102.76934814 C-241.24708873 97.46373236 -231.99612826 92.9968497 -222.78369141 88.42578125 C-220.91515321 87.49465621 -219.04682519 86.56310928 -217.17869568 85.63116455 C-212.27392546 83.18540015 -207.36694839 80.7441002 -202.45928955 78.30413818 C-194.63919545 74.41570682 -186.82174922 70.52196875 -179.00572014 66.62537384 C-176.30912769 65.28208607 -173.61114201 63.94163134 -170.91297913 62.60150146 C-162.75244382 58.5410237 -154.6295962 54.42523747 -146.57543945 50.15722656 C-135.75158731 44.42171907 -124.8098277 38.92742328 -113.85791016 33.44140625 C-112.80288048 32.91247772 -111.7478508 32.38354919 -110.66085052 31.83859253 C-105.10357591 29.05254164 -99.54520773 26.26868786 -93.98583984 23.48681641 C-88.26382384 20.62304048 -82.545574 17.75182495 -76.82811356 14.87896729 C-72.40174901 12.65648045 -67.97271603 10.43935325 -63.5429306 8.22369385 C-61.43206168 7.16675006 -59.3221895 6.10781309 -57.21335602 5.04681396 C-54.27638864 3.56979907 -51.33572595 2.10040798 -48.39404297 0.6328125 C-47.53268738 0.19752731 -46.67133179 -0.23775787 -45.78387451 -0.68623352 C-29.99531654 -8.52601687 -15.70975446 -8.11928394 0 0 Z " fill="#FECB49" transform="translate(535.90478515625,230.93359375)"/>
<path d="M0 0 C4.13301162 1.52741734 6.25144083 4.00481845 8.27734375 7.93359375 C10.29020449 13.68928744 9.09180192 19.6612332 8 25.5 C6.10935264 36.51102371 6.83797947 47.86918953 7 59 C7.96164062 58.96519531 8.92328125 58.93039062 9.9140625 58.89453125 C14.52184965 58.90031121 18.87580263 59.75566701 23.375 60.6875 C24.2520459 60.86829102 25.1290918 61.04908203 26.03271484 61.23535156 C59.69528966 68.37792572 91.2805975 84.53633842 114 111 C114 111.66 114 112.32 114 113 C126.09833218 107.42899886 135.88122389 101.2608669 145.3125 91.6875 C150.0588171 86.89333696 153.48023596 83.81101382 160.4375 83.375 C165.55206882 83.54246201 168.16579617 84.93454453 171.7578125 88.4921875 C174.42994648 91.7357212 174.33594608 94.6244054 174.27734375 98.6875 C173.62689687 104.11094439 169.85175142 107.3891437 165.81982422 110.69726562 C162.42116951 113.13021726 158.62600431 114.80689782 154.875 116.625 C147.15074319 120.49494572 141.20930501 124.81189591 135.15234375 130.9453125 C133 133 133 133 131 133 C131.27674561 133.61818604 131.55349121 134.23637207 131.83862305 134.87329102 C140.0957545 153.38954313 146.47670497 170.99394213 150 191 C150.17724609 191.94254639 150.35449219 192.88509277 150.53710938 193.85620117 C151.40960122 199.78187495 151.24084991 205.77094307 151.25 211.75 C151.25233643 212.44164246 151.25467285 213.13328491 151.25708008 213.84588623 C151.26957964 223.64242138 150.7016817 233.05879298 148.65625 242.6640625 C148.08606111 245.56252268 147.86492648 248.0621509 148 251 C150.3292043 252.13427397 152.66280485 253.25740384 155 254.375 C155.64839844 254.69210937 156.29679687 255.00921875 156.96484375 255.3359375 C164.0079759 258.68316862 170.7540353 260.08316566 178.5 260.9375 C186.51927608 261.96581671 192.92855794 263.28570159 199 269 C201.97861692 273.46792538 201.73309522 277.76360556 201 283 C199.35691832 286.44911361 196.97193836 288.4220907 193.6875 290.375 C184.69415073 292.46647657 178.75048719 289.4898231 170.6875 285.625 C162.81558176 281.86783975 155.69191709 279.05982204 147 278 C146.11892578 277.89042969 145.23785156 277.78085937 144.33007812 277.66796875 C142.22255876 277.42271824 140.11155134 277.20769357 138 277 C137.83781982 277.55252441 137.67563965 278.10504883 137.50854492 278.67431641 C135.73668223 284.37498688 133.40726182 289.28342651 130.3125 294.375 C129.87043213 295.11177979 129.42836426 295.84855957 128.97290039 296.60766602 C123.43183197 305.73102071 117.26779258 313.96179358 110.01171875 321.796875 C107.86917561 324.08405651 107.86917561 324.08405651 105.625 327.0625 C101.55457782 331.61749625 96.80338901 335.24541298 92 339 C91.02289062 339.76957031 90.04578125 340.53914063 89.0390625 341.33203125 C82.30987201 346.51580398 75.43389978 350.90081058 68 355 C70.43948291 368.36412379 74.13744164 378.93938125 81.1953125 390.66015625 C88.8306855 403.39536939 88.8306855 403.39536939 88 410 C86.41323146 414.67215181 84.36007587 417.63829224 80 420 C74.61520725 420.87965317 70.43585954 420.79769974 65.625 418.125 C58.81640624 411.00515624 56.96640235 401.41186211 54.52490234 392.20239258 C51.97495524 383.06332371 47.7998047 375.13833553 43 367 C38.30805438 367.49416279 34.02522024 368.23788952 29.47216797 369.51147461 C18.70104693 372.34155845 7.93389985 372.41910118 -3.125 372.4375 C-3.92834778 372.44331085 -4.73169556 372.4491217 -5.55938721 372.45510864 C-17.02249942 372.51219207 -27.78668186 371.35109917 -39 369 C-39.71174881 368.85209518 -40.42349762 368.70419037 -41.15681458 368.55180359 C-45.11096849 367.72910727 -49.05837808 366.88077447 -53 366 C-53.25265625 366.67933594 -53.5053125 367.35867188 -53.765625 368.05859375 C-54.93329216 370.84104113 -56.28961805 373.45671345 -57.71582031 376.11328125 C-61.81694716 383.84307274 -64.65030378 391.54770968 -66.92089844 399.99633789 C-69.08988067 407.94954131 -71.53875376 415.65891128 -79 420 C-83.46358956 420.81156174 -87.83380702 421.08953073 -91.97265625 419.0078125 C-94.75540996 416.80622357 -97.02403347 414.41588287 -98 411 C-98.55105177 404.29311993 -97.19357471 400.3936265 -93.875 394.625 C-93.46411133 393.87460449 -93.05322266 393.12420898 -92.62988281 392.35107422 C-90.49443005 388.48568733 -88.21486547 384.79003557 -85.75 381.125 C-81.42344471 374.18800911 -78 363.24822756 -78 355 C-80.1839949 353.60823855 -82.36818469 352.32621756 -84.625 351.0625 C-110.64597862 335.93668511 -131.52040101 313.47887558 -144.40063477 286.27856445 C-145.9984949 282.90797754 -147.61589979 279.8798764 -150 277 C-164.14301843 278.3106255 -175.48551546 282.67772616 -188.3203125 288.765625 C-192.90198739 290.87613413 -196.98282013 291.67593884 -202 291 C-206.79642058 288.60178971 -209.60178971 285.79642058 -212 281 C-212.68946828 276.17372204 -212.56741603 273.315249 -209.9375 269.1875 C-205.11955154 263.21595825 -196.72681843 261.51264096 -189.421875 260.5078125 C-187.60429687 260.31832031 -187.60429687 260.31832031 -185.75 260.125 C-175.84414146 258.87332192 -167.81239671 255.48631105 -159 251 C-158.34 251 -157.68 251 -157 251 C-157.20496094 250.23816406 -157.40992188 249.47632813 -157.62109375 248.69140625 C-157.89050781 247.65886719 -158.15992188 246.62632812 -158.4375 245.5625 C-158.70433594 244.55316406 -158.97117187 243.54382813 -159.24609375 242.50390625 C-166.29096591 209.76167658 -160.76263326 167.79870076 -142.62890625 139.1953125 C-140.69163095 136.24722451 -140.69163095 136.24722451 -141.51953125 133.80859375 C-148.78318417 124.93505469 -157.89276609 119.95023088 -167.88745117 114.60571289 C-174.37675794 111.10145495 -178.86794262 108.19808606 -183 102 C-183.77846277 97.71845479 -183.96725845 93.6526471 -181.7265625 89.82421875 C-177.00393677 84.26073527 -177.00393677 84.26073527 -172.8984375 83.7265625 C-166.11985154 83.45374015 -162.14168423 84.56656208 -157 89 C-154.51742793 91.46511376 -152.0719864 93.95893478 -149.64208984 96.47558594 C-144.94551939 101.25341193 -139.86139868 104.74966986 -134 108 C-133.23300781 108.45503906 -132.46601563 108.91007812 -131.67578125 109.37890625 C-129.37824752 110.72430752 -129.37824752 110.72430752 -126 112 C-122.96340917 110.92323103 -121.0655932 109.27484344 -118.890625 106.9453125 C-118.30933838 106.3363916 -117.72805176 105.7274707 -117.12915039 105.10009766 C-116.50903076 104.44831543 -115.88891113 103.7965332 -115.25 103.125 C-99.71180036 87.24946915 -81.59115514 76.1412718 -61 68 C-60.12601563 67.63261719 -59.25203125 67.26523437 -58.3515625 66.88671875 C-45.23170775 61.65896124 -31.03413179 59.56686684 -17 59 C-16.94092793 54.77089411 -16.90604959 50.54189711 -16.875 46.3125 C-16.84986328 44.54422852 -16.84986328 44.54422852 -16.82421875 42.74023438 C-16.78512285 35.6052318 -17.2889782 28.85194904 -18.53027344 21.82275391 C-19.46714274 16.19277321 -19.94104767 11.84724172 -17.3125 6.6875 C-11.89436241 0.3907455 -8.23937495 -1.08770626 0 0 Z " fill="#FEE3A4" transform="translate(517,299)"/>
<path d="M0 0 C-0.47688394 9.04107805 -0.96303841 18.08159628 -1.46098137 27.12153912 C-1.69191484 31.3193229 -1.91967111 35.51722856 -2.14013672 39.71557617 C-2.35308058 43.76844401 -2.57440892 47.82077539 -2.80151749 51.87287331 C-2.88662586 53.41763002 -2.96872992 54.96255532 -3.0477562 56.50763512 C-3.15910233 58.67447912 -3.28119016 60.8404734 -3.40576172 63.0065918 C-3.47238007 64.23903122 -3.53899841 65.47147064 -3.6076355 66.74125671 C-4.09908627 70.82295086 -4.86792917 73.82749807 -7.75 76.8125 C-10.77694813 78.41005596 -12.59199865 78.34325193 -16 78 C-18.30808384 76.7326413 -20.26793781 75.47941907 -22.375 73.9375 C-23.7005776 73.0119658 -25.02890096 72.09035655 -26.359375 71.171875 C-27.09220703 70.66462891 -27.82503906 70.15738281 -28.58007812 69.63476562 C-33.18141966 66.52635331 -37.90869142 63.61722543 -42.625 60.6875 C-44.14552979 59.74076416 -44.14552979 59.74076416 -45.69677734 58.77490234 C-48.79613921 56.84716093 -51.89768596 54.92298637 -55 53 C-56.03350586 52.35901367 -57.06701172 51.71802734 -58.13183594 51.05761719 C-64.08470036 47.36657692 -70.04057317 43.68043516 -76 40 C-67.40706237 22.10250392 -42.97127369 11.44879674 -25.484375 4.62890625 C-16.98657578 1.65467652 -9.0041967 -0.0499175 0 0 Z " fill="#FECC49" transform="translate(496,390)"/>
<path d="M0 0 C1.58677262 0.15033191 3.17331816 0.30306179 4.75976562 0.45678711 C5.64329712 0.54157822 6.52682861 0.62636932 7.43713379 0.71372986 C29.61038901 3.19046504 50.23236191 14.8504668 67 29 C67.69351563 29.54785156 68.38703125 30.09570312 69.1015625 30.66015625 C69.72804688 31.16417969 70.35453125 31.66820312 71 32.1875 C71.53625 32.61417969 72.0725 33.04085937 72.625 33.48046875 C74.40448182 35.44699837 75.06434495 37.5381576 76 40 C75.31188232 40.4218457 74.62376465 40.84369141 73.91479492 41.27832031 C56.84473591 51.7459105 56.84473591 51.7459105 39.875 62.375 C38.74481445 63.0875293 38.74481445 63.0875293 37.59179688 63.81445312 C33.86907974 66.16512953 30.16676977 68.54157176 26.48828125 70.9609375 C25.76334473 71.43096191 25.0384082 71.90098633 24.29150391 72.38525391 C22.9361976 73.26436301 21.58758329 74.15392076 20.24755859 75.05615234 C16.35554523 77.56253832 13.6308651 78.65100567 9 78 C6.15219381 75.76793569 5.15002334 74.45007001 4 71 C3.79676494 68.71736933 3.64483539 66.43006442 3.51928711 64.1418457 C3.4801268 63.44890411 3.44096649 62.75596252 3.40061951 62.04202271 C3.27226577 59.75347489 3.14978204 57.46465253 3.02734375 55.17578125 C2.93945316 53.58821137 2.85119658 52.00066171 2.7625885 50.41313171 C2.53042811 46.23598404 2.30324445 42.05857994 2.0770874 37.88110352 C1.84540568 33.61783567 1.60903031 29.35482839 1.37304688 25.09179688 C0.91076398 16.72811278 0.45373706 8.36415204 0 0 Z " fill="#FECC48" transform="translate(528,390)"/>
<path d="M0 0 C3.71367804 7.82297127 6.62889209 15.55594988 8.8125 23.9375 C9.0189917 24.72938721 9.2254834 25.52127441 9.43823242 26.3371582 C11.73216599 35.47339173 12.18636599 44.32123293 12.18530273 53.70556641 C12.18748735 55.8625061 12.20568102 58.01893181 12.22460938 60.17578125 C12.25294326 67.36636092 11.97304736 74.02804608 10 81 C3.13905092 78.7736695 -3.59123838 76.29718155 -10.31640625 73.69140625 C-11.37230453 73.28341293 -12.42820282 72.87541962 -13.51609802 72.45506287 C-15.73601304 71.59639046 -17.95549405 70.73659527 -20.17456055 69.87573242 C-23.55414021 68.56574042 -26.93616508 67.26220845 -30.31835938 65.95898438 C-32.4845274 65.12018512 -34.65054805 64.28100518 -36.81640625 63.44140625 C-37.81869766 63.05586075 -38.82098907 62.67031525 -39.85365295 62.27308655 C-55.48431936 56.18735626 -55.48431936 56.18735626 -59 52 C-59.46875 49.1015625 -59.46875 49.1015625 -59 46 C-57.15625 43.6484375 -57.15625 43.6484375 -54.5 41.375 C-54.01297607 40.95387939 -53.52595215 40.53275879 -53.02416992 40.09887695 C-48.27813792 36.06942147 -43.27089657 32.36913253 -38.26220703 28.67553711 C-33.35847604 25.05447102 -28.58951893 21.3012399 -23.875 17.4375 C-22.55731334 16.35934851 -21.23960517 15.28122331 -19.921875 14.203125 C-19.27669922 13.67525391 -18.63152344 13.14738281 -17.96679688 12.60351562 C-14.70346612 9.94294507 -11.42128022 7.30710307 -8.125 4.6875 C-7.5357373 4.21304443 -6.94647461 3.73858887 -6.33935547 3.24975586 C-2.23125411 0 -2.23125411 0 0 0 Z " fill="#FECC49" transform="translate(624,456)"/>
<path d="M0 0 C10.8905009 8.11449086 21.60700101 16.45560127 32.31665039 24.80639648 C35.81917391 27.53556281 39.32647901 30.25675662 42.86328125 32.94140625 C43.45044922 33.38806641 44.03761719 33.83472656 44.64257812 34.29492188 C46.19300525 35.4717958 47.74675715 36.64428611 49.30078125 37.81640625 C52.06519911 40.05274429 54.53133841 42.44395216 57 45 C57.33 45.33 57.66 45.66 58 46 C57.76682632 52.1791026 57.76682632 52.1791026 55.171875 54.95703125 C50.53422524 57.94408891 45.56365365 59.55657658 40.375 61.375 C27.20052429 66.10749848 14.22065469 71.25808241 1.25341797 76.52880859 C0.51913071 76.82583679 -0.21515656 77.12286499 -0.97169495 77.42889404 C-2.35799569 77.98979427 -3.74310109 78.55366076 -5.1268158 79.12091064 C-9.77497517 81 -9.77497517 81 -12 81 C-16.84264195 52.46300277 -13.1239411 25.89396194 0 0 Z " fill="#FECC49" transform="translate(401,456)"/>
<path d="M0 0 C2 1.5625 2 1.5625 3 4 C3.32203359 9.14515664 2.60398119 12.90645519 0.76171875 17.69921875 C0.40655685 18.63697395 0.40655685 18.63697395 0.04421997 19.59367371 C-0.73016328 21.62943496 -1.52097049 23.65835111 -2.3125 25.6875 C-2.85481172 27.10203572 -3.39622314 28.5169169 -3.93676758 29.93212891 C-5.33132769 33.57256733 -6.74107169 37.20688936 -8.15734863 40.83892822 C-8.98394686 42.95882997 -9.80818253 45.07963619 -10.63183594 47.20068359 C-19.46444713 69.92889426 -19.46444713 69.92889426 -21 73 C-42.98575015 65.29900221 -61.79803583 39.5976941 -72 20 C-72 19.34 -72 18.68 -72 18 C-64.39734905 15.93745546 -56.78980979 13.92129421 -49.1328125 12.0703125 C-29.97395706 7.47930813 -29.97395706 7.47930813 -11.375 1.03125 C-7.27379129 -0.22189711 -4.2719588 -0.29414971 0 0 Z " fill="#FECC48" transform="translate(471,550)"/>
<path d="M0 0 C2.74946021 0.79549974 5.35608053 1.64766094 8.03125 2.63671875 C18.68668871 6.37772004 29.54781292 9.09348356 40.5 11.8125 C43.4261959 12.54441023 46.35187955 13.27828635 49.27697754 14.01457214 C51.07695072 14.46710828 52.87762572 14.91686442 54.67907715 15.36347961 C55.48171997 15.5642662 56.28436279 15.7650528 57.11132812 15.97192383 C57.8164856 16.14701981 58.52164307 16.32211578 59.24816895 16.5025177 C61 17 61 17 63 18 C59.73945356 28.69965725 53.24238677 37.6187927 46 46 C45.18789063 46.95777344 44.37578125 47.91554688 43.5390625 48.90234375 C35.30769981 58.38320552 25.65798412 66.35606184 15 73 C14.34 73 13.68 73 13 73 C7.69259664 59.87614157 2.52519578 46.70677282 -2.43945312 33.44921875 C-3.15650548 31.5397202 -3.87798177 29.63187799 -4.60351562 27.72558594 C-5.67231348 24.91690666 -6.72820203 22.10367864 -7.78125 19.2890625 C-8.10613403 18.44219879 -8.43101807 17.59533508 -8.76574707 16.72280884 C-10.38021643 12.35986605 -11.55017209 8.72770425 -11 4 C-7.9778825 -0.5936186 -5.21720478 -0.3609824 0 0 Z " fill="#FECC48" transform="translate(561,550)"/>
<path d="M0 0 C0.78375 0.04125 1.5675 0.0825 2.375 0.125 C7.49864302 10.20515567 12.40652456 20.35532676 17.05761719 30.66210938 C18.0036625 32.75811443 18.95458852 34.85185225 19.90625 36.9453125 C23.84296731 45.62465929 27.65822246 54.34913166 31.375 63.125 C9.95641316 68.1518112 -11.02695021 68.86810113 -32.625 64.125 C-31.09712762 59.12772737 -29.03433398 54.55248747 -26.7734375 49.859375 C-26.39571198 49.0671051 -26.01798645 48.27483521 -25.6288147 47.45855713 C-24.42250416 44.92911531 -23.2116803 42.40187341 -22 39.875 C-20.42151529 36.57953294 -18.84588801 33.28272565 -17.2734375 29.984375 C-16.88621521 29.17335327 -16.49899292 28.36233154 -16.10003662 27.5267334 C-12.98867355 20.97476593 -10.02966741 14.36113679 -7.16830444 7.69622803 C-3.9018507 0.18580241 -3.9018507 0.18580241 0 0 Z " fill="#FECB48" transform="translate(512.625,572.875)"/>
<path d="M0 0 C5.45243025 2.85429234 9.32170944 7.45944415 12.37109375 12.7265625 C14.10914505 20.02637794 13.16675653 25.52223389 9.55859375 32.11328125 C6.42818407 36.59759311 2.4008643 39.30149279 -3.00390625 40.3515625 C-9.45429807 41.0911751 -14.75027287 40.33593571 -20.00390625 36.3515625 C-25.76834256 30.123465 -27.49209017 24.95967709 -27.41015625 16.5 C-26.75338109 11.40999248 -24.54399319 7.99191334 -21.00390625 4.3515625 C-18.70873955 2.64087925 -16.62979791 1.5635125 -14.00390625 0.3515625 C-9.87672748 -1.71202689 -4.33210546 -1.4018119 0 0 Z " fill="#FECB48" transform="translate(519.00390625,493.6484375)"/>
<path d="M0 0 C0.56460937 0.25136719 1.12921875 0.50273437 1.7109375 0.76171875 C-0.85317802 3.32583427 -3.4158587 5.88275149 -6.0390625 8.38671875 C-8.47910924 10.62704987 -8.47910924 10.62704987 -9.2890625 13.76171875 C-8.2990625 14.09171875 -7.3090625 14.42171875 -6.2890625 14.76171875 C-7.2790625 15.25671875 -7.2790625 15.25671875 -8.2890625 15.76171875 C-10.9140625 14.32421875 -10.9140625 14.32421875 -13.2890625 12.76171875 C-11.75658201 9.1776918 -9.6216024 6.73321741 -6.9140625 3.94921875 C-6.14320313 3.13839844 -5.37234375 2.32757813 -4.578125 1.4921875 C-2.2890625 -0.23828125 -2.2890625 -0.23828125 0 0 Z " fill="#FEC839" transform="translate(433.2890625,417.23828125)"/>
<path d="M0 0 C0 4.21226525 -2.37561148 5.97603335 -5.125 8.875 C-5.8365625 9.65037109 -5.8365625 9.65037109 -6.5625 10.44140625 C-9.82296629 13.93979846 -13.27388379 17.00362762 -17 20 C-17.66 19.67 -18.32 19.34 -19 19 C-18.35933594 18.443125 -17.71867188 17.88625 -17.05859375 17.3125 C-12.16036544 12.99096325 -7.57941023 8.63175016 -3.375 3.62890625 C-2 2 -2 2 0 0 Z " fill="#FEC736" transform="translate(631,616)"/>
<path d="M0 0 C1.45880109 0.14107747 2.91703551 0.28802415 4.375 0.4375 C5.59316406 0.55931641 5.59316406 0.55931641 6.8359375 0.68359375 C9 1 9 1 11 2 C9.77472971 6.05281712 8.30119506 9.44360764 6 13 C5.67 12.34 5.34 11.68 5 11 C5.309375 10.401875 5.61875 9.80375 5.9375 9.1875 C7.18281989 6.6236061 7.15636602 4.81458835 7 2 C4.69 1.67 2.38 1.34 0 1 C0 0.67 0 0.34 0 0 Z " fill="#FEC52F" transform="translate(613,566)"/>
<path d="M0 0 C-3.82517513 2.39073445 -7.59665524 2.55966552 -12 3 C-12.33 3.99 -12.66 4.98 -13 6 C-14.32 5.67 -15.64 5.34 -17 5 C-17 4.34 -17 3.68 -17 3 C-5.47835991 -0.44419134 -5.47835991 -0.44419134 0 0 Z " fill="#FEC739" transform="translate(416,565)"/>
<path d="M0 0 C0.33 0.99 0.66 1.98 1 3 C-0.23944276 3.86941494 -1.49207059 4.72005457 -2.75 5.5625 C-3.44609375 6.03816406 -4.1421875 6.51382812 -4.859375 7.00390625 C-7 8 -7 8 -11 7 C-7.37 4.69 -3.74 2.38 0 0 Z " fill="#FEEBBE" transform="translate(588,439)"/>
<path d="M0 0 C0.66 0.33 1.32 0.66 2 1 C1.27683594 1.67095703 1.27683594 1.67095703 0.5390625 2.35546875 C-4.30796815 6.95594955 -4.30796815 6.95594955 -7 13 C-7.640625 11.2265625 -7.640625 11.2265625 -8 9 C-7.109375 7.1484375 -7.109375 7.1484375 -5.75 5.375 C-5.31171875 4.78460938 -4.8734375 4.19421875 -4.421875 3.5859375 C-3 2 -3 2 0 0 Z " fill="#FEC430" transform="translate(501,496)"/>
<path d="M0 0 C0.66 0 1.32 0 2 0 C3.97094808 4.92737019 4.1799928 8.78020872 4 14 C2.30566082 10.9530371 1.50532888 8.17178534 0.875 4.75 C0.70742188 3.85796875 0.53984375 2.9659375 0.3671875 2.046875 C0.18542969 1.03367187 0.18542969 1.03367187 0 0 Z " fill="#FFCA38" transform="translate(764,416)"/>
<path d="M0 0 C0.99 0.33 1.98 0.66 3 1 C2.01 3.97 1.02 6.94 0 10 C-0.33 10 -0.66 10 -1 10 C-1.125 2.25 -1.125 2.25 0 0 Z " fill="#FEE193" transform="translate(420,700)"/>
<path d="M0 0 C2.64 0.33 5.28 0.66 8 1 C7.38125 1.185625 6.7625 1.37125 6.125 1.5625 C2.94397134 3.71437233 2.80548053 6.37533763 2 10 C1.67 10 1.34 10 1 10 C0.67 6.7 0.34 3.4 0 0 Z " fill="#FFC52C" transform="translate(528,390)"/>
<path d="M0 0 C1 3 1 3 0.1875 4.9375 C-0.204375 5.618125 -0.59625 6.29875 -1 7 C-1.37125 7.7425 -1.7425 8.485 -2.125 9.25 C-2.41375 9.8275 -2.7025 10.405 -3 11 C-3.99 10.67 -4.98 10.34 -6 10 C-5.34 10 -4.68 10 -4 10 C-3.79503906 9.36191406 -3.59007812 8.72382812 -3.37890625 8.06640625 C-3.10949219 7.24011719 -2.84007812 6.41382813 -2.5625 5.5625 C-2.29566406 4.73878906 -2.02882813 3.91507813 -1.75390625 3.06640625 C-1 1 -1 1 0 0 Z " fill="#FEE9B7" transform="translate(454,613)"/>
<path d="M0 0 C0.66 0.33 1.32 0.66 2 1 C-1.33562767 5.51290803 -3.33289301 7.68206814 -9 9 C-6 6 -3 3 0 0 Z " fill="#FEE9B8" transform="translate(594,608)"/>
<path d="M0 0 C0.66 0 1.32 0 2 0 C3.3271261 3.9813783 3.06915913 7.85045227 3 12 C2.67 12 2.34 12 2 12 C0.70756464 7.8803623 -0.26252625 4.33168317 0 0 Z " fill="#FECB38" transform="translate(789,522)"/>
<path d="M0 0 C0.33 0 0.66 0 1 0 C0.14285714 8.57142857 0.14285714 8.57142857 -2 12 C-2.28571429 3.42857143 -2.28571429 3.42857143 0 0 Z " fill="#FFC938" transform="translate(225,563)"/>
<path d="M0 0 C0 0.99 0 1.98 0 3 C-3.63423209 5.32590854 -6.77088331 5.16265833 -11 5 C-11 4.67 -11 4.34 -11 4 C-9.1128125 3.566875 -9.1128125 3.566875 -7.1875 3.125 C-4.1460601 2.42696461 -2.69330122 1.79553415 0 0 Z " fill="#FEEECB" transform="translate(548,464)"/>
<path d="" fill="#FFCE4E" transform="translate(0,0)"/>
<path d="" fill="#FFCD4C" transform="translate(0,0)"/>
<path d="" fill="#FBC94A" transform="translate(0,0)"/>
<path d="" fill="#FBCB4A" transform="translate(0,0)"/>
<path d="" fill="#FBCD49" transform="translate(0,0)"/>
<path d="" fill="#FDCD4C" transform="translate(0,0)"/>
<path d="" fill="#FDCB47" transform="translate(0,0)"/>
<path d="" fill="#FFCA4A" transform="translate(0,0)"/>
<path d="" fill="#FDC849" transform="translate(0,0)"/>
<path d="" fill="#FECE4B" transform="translate(0,0)"/>
<path d="" fill="#FECB4C" transform="translate(0,0)"/>
<path d="" fill="#FFCB4D" transform="translate(0,0)"/>
<path d="" fill="#FFD04C" transform="translate(0,0)"/>
<path d="" fill="#FFCD4A" transform="translate(0,0)"/>
<path d="" fill="#FACA4A" transform="translate(0,0)"/>
<path d="" fill="#FECC4A" transform="translate(0,0)"/>
<path d="" fill="#FFCB4C" transform="translate(0,0)"/>
<path d="" fill="#FCCE54" transform="translate(0,0)"/>
</svg>
